<svg width="150" height="38" viewBox="0 0 150 38" fill="none" xmlns="http://www.w3.org/2000/svg">
<path d="M8.46738 15.3718V6.31219C8.46738 5.07439 8.21976 4.15853 7.72467 3.56434C7.2293 2.97028 6.68479 2.67325 6.0906 2.67325H5.64492C5.00104 2.67325 4.43161 2.97028 3.93652 3.56434C3.44143 4.15853 3.19381 5.07439 3.19381 6.31219V30.8924C3.19381 32.13 3.41665 33.046 3.86234 33.6399C4.35743 34.2341 4.87743 34.5311 5.42194 34.5311H6.0906C6.68479 34.5311 7.2293 34.2341 7.72467 33.6399C8.21976 33.046 8.46738 32.13 8.46738 30.8924V21.684H11.6612V30.8924C11.6612 32.9715 11.1164 34.5559 10.0271 35.645C8.98725 36.6846 7.7493 37.2044 6.3133 37.2044H5.05072C3.76323 37.2044 2.59962 36.6846 1.55974 35.645C0.519868 34.5559 0 32.9715 0 30.8924V6.31219C0 4.28227 0.519868 2.72294 1.55974 1.63352C2.59962 0.544506 3.83742 0 5.27343 0H6.3133C7.7493 0 8.98725 0.544506 10.0271 1.63352C11.1164 2.67325 11.6612 4.23285 11.6612 6.31219V15.3718H8.46738Z" fill="white"/>
<path d="M25.668 37.2044C22.9445 37.2044 21.5829 35.1004 21.5829 30.8924V22.7236C21.5829 18.5157 23.0189 16.4114 25.8907 16.4114H26.1137C27.4505 16.4114 28.7627 16.9808 30.0502 18.1195V6.31219C30.0502 5.07439 29.8028 4.15853 29.3074 3.56434C28.8122 2.97028 28.2429 2.67325 27.599 2.67325H27.1536C26.5594 2.67325 26.0146 2.97028 25.5195 3.56434C25.0244 4.15853 24.7768 5.07439 24.7768 6.31219V15.3718H21.5829V6.31219C21.5829 4.23285 22.1029 2.67325 23.1427 1.63352C24.232 0.544506 25.4946 0 26.9306 0H27.9705C29.4063 0 30.6444 0.544506 31.6843 1.63352C32.724 2.72294 33.2439 4.28227 33.2439 6.31219V36.9817H30.0502V35.348C29.4064 35.8925 28.7132 36.338 27.9705 36.6846C27.2772 37.0312 26.6088 37.2044 25.9649 37.2044H25.668ZM27.1536 18.7878C26.5594 18.7878 26.0146 19.085 25.5195 19.679C25.0244 20.2731 24.7768 21.1889 24.7768 22.4267V31.1893C24.7768 32.427 25.0244 33.343 25.5195 33.9369C26.0146 34.5311 26.5594 34.8281 27.1536 34.8281H27.3763C27.9211 34.8281 28.4656 34.5805 29.0104 34.0856C29.6046 33.5409 29.9511 32.6994 30.0502 31.5605V21.387C30.0502 20.3968 29.7531 19.7284 29.1589 19.382C28.6144 18.9859 28.0696 18.7878 27.5248 18.7878H27.1536Z" fill="white"/>
<path d="M49.2562 2.67325C48.662 2.67325 48.0678 3.04474 47.4736 3.78718C46.8794 4.48033 46.5328 5.39619 46.4337 6.53489V36.9817H43.24V0.2227H46.4337V2.52474C47.0282 1.78203 47.6718 1.18811 48.3649 0.74243C49.0582 0.247476 49.7512 0 50.4445 0H50.7417C52.3758 0 53.5394 0.668104 54.2327 2.00501C54.7772 3.09416 55.0496 4.52974 55.0496 6.31219V15.3718H51.8559V6.31219C51.8559 5.07439 51.6083 4.15853 51.1129 3.56434C50.6178 2.97028 50.0733 2.67325 49.4791 2.67325H49.2562Z" fill="white"/>
<path d="M121.807 37.2044C120.371 37.2044 119.133 36.6846 118.093 35.645C117.053 34.5559 116.533 32.9715 116.533 30.8924V6.31219C116.533 4.23285 117.053 2.67325 118.093 1.63352C119.133 0.544506 120.371 0 121.807 0H122.846C124.283 0 125.52 0.544506 126.56 1.63352C127.65 2.67325 128.194 4.23285 128.194 6.31219V30.8924C128.194 32.9715 127.65 34.5559 126.56 35.645C125.52 36.6846 124.282 37.2044 122.846 37.2044H121.807ZM122.178 2.67325C121.534 2.67325 120.965 2.97028 120.47 3.56434C119.975 4.15853 119.727 5.07439 119.727 6.31219V30.8924C119.727 32.13 119.975 33.046 120.47 33.6399C120.965 34.2341 121.534 34.5311 122.178 34.5311H122.624C123.218 34.5311 123.763 34.2341 124.258 33.6399C124.753 33.046 125 32.13 125 30.8924V6.31219C125 5.07439 124.753 4.15853 124.258 3.56434C123.763 2.97028 123.218 2.67325 122.624 2.67325H122.178Z" fill="white"/>
<path d="M144.207 2.67325C143.613 2.67325 143.018 3.04474 142.424 3.78718C141.83 4.48033 141.483 5.39619 141.384 6.53489V36.9817H138.19V0.2227H141.384V2.52474C141.978 1.78203 142.622 1.18811 143.315 0.74243C144.009 0.247476 144.702 0 145.395 0H145.692C148.564 0 150 2.10383 150 6.31219V36.9817H146.806V6.31219C146.806 5.07439 146.559 4.15853 146.063 3.56434C145.568 2.97028 145.024 2.67325 144.429 2.67325H144.207Z" fill="white"/>
<path fill-rule="evenodd" clip-rule="evenodd" d="M67.5663 12.9282L64.8373 10.0808L64.7713 18.9787H73.618L70.7702 16.0127L79.3665 7.52356C80.843 6.06042 82.2405 4.41265 85.0357 4.99273C88.2922 5.6517 89.2019 7.69491 89.2019 10.6082C89.2019 15.5382 77.5734 19.8487 77.5734 27.8105C77.5734 33.2151 81.9373 37.5783 87.3298 37.5783C92.5507 37.5783 95.9128 32.846 100.066 28.6805C101.055 27.6918 102.94 26.0441 103.612 25.0291L106.592 27.8632L106.645 18.9787H97.7981L100.54 21.8259L92.0498 30.4338C90.5731 31.8969 89.1756 33.5447 86.3805 32.9646C83.1239 32.3055 82.2143 30.2624 82.2143 27.3491C82.2143 22.5377 93.8428 17.9637 93.8428 10.1468C93.8428 4.74221 89.4788 0.378967 84.0864 0.378967C78.8654 0.378967 75.5034 5.11135 71.3503 9.2768C70.3351 10.2786 68.608 12.2295 67.5663 12.9282Z" fill="white"/>
</svg>
