<svg width="47" height="47" viewBox="0 0 47 47" fill="none" xmlns="http://www.w3.org/2000/svg">
<path d="M30.3689 25.2716C30.3582 25.293 30.3582 25.3108 30.3618 25.3286C30.3689 25.3572 30.4046 25.3857 30.4438 25.4C30.4581 25.4035 30.4652 25.4142 30.4474 25.4463C30.3404 25.6782 30.2405 25.8137 30.1014 26.017C29.9766 26.2025 29.8339 26.3488 29.6627 26.4914C29.4059 26.7055 29.0456 26.9373 28.7495 26.7804C28.6176 26.7126 28.5605 26.5271 28.5641 26.3773C28.5712 25.9564 28.7567 25.5284 29.0991 25.1039C29.52 24.5867 29.9837 24.3192 30.2869 24.4655C30.6079 24.6188 30.508 24.9827 30.3689 25.2716ZM7.56229 23.9982C7.56229 20.9057 14.6853 18.3982 23.4741 18.3982C32.2629 18.3982 39.386 20.9057 39.386 23.9982C39.386 27.0907 32.2629 29.5982 23.4741 29.5982C14.6889 29.6018 7.56229 27.0942 7.56229 23.9982ZM13.2871 25.9421C13.3834 26.9623 14.2252 27.5544 15.1776 27.5472C15.9373 27.5401 16.6543 27.3118 17.5139 26.4379C18.3164 25.6211 19.0476 24.4048 19.7325 23.2777C19.7539 23.242 19.7681 23.2242 19.8716 23.2099C20.2996 23.1564 20.9345 23.0958 21.3411 23.0708C21.4303 23.0672 21.4517 23.0672 21.4874 23.11C21.5944 23.2456 21.7513 23.3562 21.8797 23.4275C21.9404 23.4632 21.9725 23.4774 22.0188 23.481C22.0795 23.481 22.1259 23.4489 22.1544 23.4168C22.1972 23.3704 22.2115 23.3062 22.1865 23.267C22.1615 23.2242 21.8797 23.0672 21.869 23.003C21.8619 22.9638 21.9047 22.9531 21.9047 22.9531C22.1116 22.8889 22.3292 22.7534 22.4611 22.5037C22.5896 22.254 22.611 21.9258 22.3755 21.7404C22.1687 21.5799 21.8548 21.6048 21.6051 21.8295C21.3625 22.0471 21.2805 22.3646 21.3126 22.6428C21.3197 22.6927 21.3162 22.707 21.2484 22.7141C20.8739 22.7427 20.5101 22.7534 20.107 22.7748C20.0785 22.7783 20.0713 22.7605 20.0856 22.7391C20.5493 21.933 21.2413 21.3623 22.0081 20.7951C22.0581 20.7559 22.0438 20.6846 22.0403 20.6239C23.4206 20.9235 24.7582 21.4835 26.1921 21.4728C26.7842 21.4693 27.3513 21.3765 27.8935 21.0805C28.3715 20.8201 28.5641 20.5811 28.5783 20.3279C28.589 20.1531 28.4678 20.0461 28.2966 20.0818C26.8484 20.4135 25.468 20.4099 24.0234 20.2351C22.1437 20.0069 20.3496 19.5039 18.4555 19.6573C16.8825 19.7893 15.3845 20.6739 15.3809 22.0221C15.3773 22.7034 15.8624 23.2563 16.615 23.2313C17.496 23.2028 18.2201 22.4965 18.6018 21.6048C18.7445 21.266 18.4805 21.1269 18.3521 21.3195C18.1238 21.669 17.8064 21.9437 17.4604 22.1113C17.0466 22.3146 16.6008 22.2611 16.4688 21.9223C16.2797 21.4479 16.6721 20.7345 17.571 20.3992C18.8657 19.9177 20.2247 20.2387 21.5266 20.4813C21.5445 20.4813 21.6158 20.5205 21.5516 20.5526C21.3197 20.681 21.0879 20.7844 20.7276 21.0912C20.4708 21.3123 20.1355 21.6048 19.8752 21.9223C19.6183 22.2362 19.4329 22.5179 19.1903 22.8283C19.1582 22.8746 19.1154 22.8711 19.1154 22.8711C18.5233 22.9709 17.9455 23.0387 17.4176 23.4061C17.307 23.481 17.2606 23.6165 17.3284 23.7164C17.389 23.8056 17.5246 23.8163 17.6209 23.7485C17.949 23.5024 18.2879 23.3883 18.6767 23.3776C18.6945 23.3776 18.7017 23.3811 18.7052 23.3918C18.7088 23.399 18.7052 23.4097 18.6981 23.4204C18.1167 24.2265 17.9704 24.4084 17.5353 24.9113C17.3106 25.1681 17.0894 25.3857 16.8433 25.6104C15.8517 26.5342 14.7817 26.5164 14.3964 25.9386C14.1681 25.5926 14.2002 25.2252 14.3501 24.9256C14.5355 24.5546 14.9101 24.2835 15.2204 24.1266C15.3345 24.0695 15.3702 23.9197 15.2525 23.7877C15.1776 23.6986 14.9992 23.6843 14.8673 23.7093C14.4606 23.7842 13.9791 24.0909 13.6973 24.4619C13.3906 24.8721 13.2336 25.3786 13.2871 25.9421ZM33.6932 21.99C33.4293 21.99 33.0833 21.99 32.8087 21.99C32.7445 21.99 32.7088 21.9972 32.6803 22.0578C32.5804 22.254 31.3427 24.1016 31.1144 24.4619C31.0752 24.5154 31.0288 24.5083 31.0217 24.4476C31.0003 24.2336 30.8148 23.9875 30.5259 23.8734C30.3047 23.7842 30.0871 23.7663 29.8624 23.7984C29.4558 23.852 29.0955 24.066 28.7781 24.3085C28.3001 24.6723 27.8864 25.1467 27.3513 25.4927C27.0588 25.6818 26.6594 25.8494 26.3954 25.5997C26.1529 25.375 26.1814 24.8792 26.5488 24.494C26.588 24.4548 26.6344 24.4869 26.6273 24.5225C26.5916 24.6973 26.6344 24.8685 26.7664 24.9898C26.9269 25.1325 27.1587 25.1503 27.3549 25.054C27.5867 24.9399 27.7259 24.7151 27.7651 24.4619C27.8257 24.0695 27.5225 23.7235 27.1445 23.695C26.8377 23.6736 26.5417 23.7806 26.2563 24.016C26.1136 24.1373 26.0316 24.2229 25.9067 24.4013C25.8746 24.4441 25.8283 24.4512 25.8318 24.3834C25.8461 23.8805 25.6392 23.5987 25.2219 23.588C24.9009 23.5809 24.5549 23.7556 24.2874 23.9697C23.9913 24.2051 23.7345 24.519 23.4599 24.815C23.4242 24.8507 23.3957 24.8507 23.3885 24.7793C23.3814 24.4476 23.2958 24.123 23.1424 23.8948C23.0889 23.8163 22.9748 23.777 22.8785 23.8306C22.8321 23.8555 22.6787 23.9269 22.5646 24.016C22.5075 24.0624 22.4861 24.1302 22.5111 24.2158C22.6609 24.7151 22.6288 25.2787 22.4255 25.7567C22.24 26.1954 21.8797 26.5877 21.4553 26.7233C21.1771 26.8125 20.8846 26.7697 20.7062 26.52C20.4601 26.1776 20.56 25.5855 20.9274 25.0932C21.252 24.6581 21.7192 24.3834 22.1901 24.2051C22.2436 24.1837 22.2578 24.148 22.24 24.1016C22.215 24.0232 22.1758 23.9197 22.158 23.8734C22.1152 23.7592 21.9939 23.7414 21.8476 23.7556C21.5088 23.7949 21.202 23.9126 20.8988 24.0731C20.107 24.4976 19.7075 25.3215 19.5327 25.7602C19.4507 25.9707 19.3758 26.1027 19.2831 26.2204C19.1582 26.3773 19.0013 26.52 18.7124 26.7732C18.6874 26.7982 18.6695 26.8446 18.691 26.8909C18.7195 26.9516 18.8693 27.162 18.9121 27.1799C18.9585 27.2048 19.012 27.1727 19.0334 27.1549C19.2331 27.0193 19.4757 26.8018 19.5934 26.6555C19.6362 26.6056 19.6754 26.627 19.7004 26.7019C19.811 27.0942 20.0963 27.4153 20.4958 27.5472C21.2234 27.7934 21.9796 27.4367 22.5467 26.8196C22.907 26.4272 23.039 26.174 23.1781 26.0028C23.4135 25.7103 23.8772 25.0611 24.4301 24.6402C24.6334 24.4869 24.8724 24.3692 24.9936 24.4476C25.0899 24.5118 25.122 24.6545 24.9651 24.9363C24.4015 25.9635 23.574 27.1727 23.4206 27.4652C23.3921 27.5151 23.4171 27.5579 23.4706 27.5579C23.7666 27.5579 24.0591 27.5579 24.3231 27.5579C24.3694 27.5544 24.3873 27.5365 24.4087 27.5044C24.8403 26.8267 25.2469 26.1847 25.682 25.5177C25.707 25.4784 25.7284 25.5106 25.7284 25.5248C25.7355 25.6818 25.7748 25.8922 25.8675 26.0277C26.0316 26.2846 26.267 26.3951 26.5238 26.3951C26.7307 26.3987 26.8341 26.3666 27.0553 26.2846C27.2372 26.2168 27.3799 26.1312 27.494 26.0492C27.5582 26.0028 27.5689 26.0813 27.5689 26.092C27.469 26.6306 27.5903 27.2655 28.1253 27.5294C28.7638 27.8433 29.4665 27.401 29.8696 27.0015C29.9088 26.9623 29.9516 26.9658 29.9552 27.0479C29.9623 27.2013 30.0336 27.3832 30.1585 27.508C30.4973 27.8469 31.1786 27.7113 31.8634 27.1834C32.3022 26.8446 32.7623 26.363 33.1796 25.8565C33.1939 25.8351 33.2046 25.803 33.176 25.7745C33.1118 25.7067 33.0227 25.6318 32.9585 25.5748C32.9299 25.5498 32.8871 25.5569 32.8622 25.5748C32.4377 25.9814 32.0525 26.4415 31.4996 26.8232C31.3141 26.9551 31.0145 27.0586 30.879 26.8767C30.8255 26.8053 30.8326 26.709 30.8825 26.5806C31.0431 26.1776 33.6041 22.279 33.736 22.0507C33.7681 22.0221 33.7432 21.99 33.6932 21.99ZM21.6586 22.5179C21.6693 22.575 21.6907 22.5857 21.7192 22.5821C21.8476 22.5572 21.9903 22.4502 22.0759 22.3253C22.1544 22.2112 22.1901 22.0507 22.1116 21.9865C22.0438 21.9294 21.9332 21.9437 21.8512 22.0186C21.6871 22.1577 21.6408 22.3646 21.6586 22.5179Z" fill="#0B2926"/>
<path d="M23.4777 17C13.7758 17 6 20.1068 6 23.9982C6 27.8683 13.84 31 23.4777 31C33.1154 31 40.9554 27.8611 40.9554 23.9982C40.9554 20.1424 33.1154 17 23.4777 17ZM23.4777 17.8703C32.584 17.8703 39.9674 20.6132 39.9674 24.0018C39.9674 24.7437 39.6143 25.4535 38.9651 26.1098C36.6538 28.4568 30.5901 30.1297 23.4777 30.1297C14.3679 30.1297 6.98446 27.3832 6.98446 23.9982C6.98446 20.6132 14.3679 17.8703 23.4777 17.8703Z" fill="#0B2926"/>
<circle cx="23.5" cy="23.5" r="23" stroke="#0B2926"/>
</svg>
