<svg width="575" height="393" viewBox="0 0 575 393" fill="none" xmlns="http://www.w3.org/2000/svg">
<path d="M60.8848 111.501C81.0216 111.501 97.3456 95.1767 97.3456 75.04C97.3456 54.9033 81.0216 38.5792 60.8848 38.5792C40.7481 38.5792 24.424 54.9033 24.424 75.04C24.424 95.1767 40.7481 111.501 60.8848 111.501Z" fill="#EBEBEB"/>
<path d="M56.1424 86.416C56.1443 87.594 55.7966 88.7461 55.1433 89.7263C54.49 90.7066 53.5605 91.471 52.4726 91.9227C51.3846 92.3743 50.187 92.493 49.0316 92.2637C47.8761 92.0343 46.8147 91.4672 45.9817 90.6343C45.1487 89.8013 44.5817 88.7399 44.3523 87.5844C44.123 86.4289 44.2416 85.2314 44.6933 84.1434C45.145 83.0554 45.9094 82.1259 46.8896 81.4727C47.8699 80.8194 49.022 80.4717 50.2 80.4736C51.7752 80.4761 53.2852 81.103 54.3991 82.2169C55.513 83.3307 56.1398 84.8407 56.1424 86.416Z" fill="#F5F5F5"/>
<path d="M47.704 69.2608C47.7021 69.9439 47.4978 70.6112 47.1169 71.1782C46.736 71.7453 46.1956 72.1868 45.5639 72.4469C44.9322 72.707 44.2377 72.7741 43.5679 72.6396C42.8981 72.5052 42.2832 72.1753 41.8009 71.6916C41.3185 71.2079 40.9903 70.5921 40.8577 69.9219C40.7251 69.2518 40.7941 68.5574 41.056 67.9264C41.3178 67.2955 41.7608 66.7563 42.3289 66.377C42.8971 65.9976 43.5649 65.7952 44.248 65.7952C44.7027 65.7952 45.1528 65.8849 45.5728 66.0592C45.9927 66.2335 46.3741 66.4889 46.6952 66.8108C47.0162 67.1328 47.2706 67.5149 47.4437 67.9353C47.6168 68.3557 47.7053 68.8061 47.704 69.2608Z" fill="#F5F5F5"/>
<path d="M25.5088 83.9008C25.672 84.5344 -5.70081 114.621 2.39199 121.053C10.4848 127.485 44.488 111.011 73.4896 87.5872C102.491 64.1632 128.978 35.7472 121.72 28.2016C114.462 20.656 78.232 42.9664 78.232 42.9664L82.5712 45.7216C82.5712 45.7216 104.478 31.6672 111.371 37.0816C118.264 42.496 98.5456 63.856 70.6576 84.208C42.7696 104.56 15.8416 118.845 11.656 113.277C7.47039 107.709 27.208 89.0944 27.208 89.0944L25.5088 83.9008Z" fill="#F5F5F5"/>
<path d="M544.629 342.918C561.24 342.918 574.706 329.453 574.706 312.842C574.706 296.231 561.24 282.765 544.629 282.765C528.018 282.765 514.552 296.231 514.552 312.842C514.552 329.453 528.018 342.918 544.629 342.918Z" fill="#F5F5F5"/>
<path d="M548.767 303.549C548.79 302.579 549.099 301.638 549.657 300.845C550.214 300.052 550.994 299.441 551.899 299.091C552.803 298.74 553.791 298.666 554.737 298.877C555.684 299.088 556.546 299.574 557.217 300.275C557.887 300.976 558.334 301.86 558.502 302.815C558.67 303.77 558.551 304.753 558.161 305.641C557.77 306.529 557.125 307.28 556.308 307.802C555.49 308.323 554.536 308.59 553.566 308.57C552.921 308.558 552.283 308.419 551.692 308.16C551.1 307.901 550.565 307.527 550.119 307.061C549.673 306.594 549.323 306.043 549.091 305.44C548.859 304.837 548.749 304.194 548.767 303.549Z" fill="#EBEBEB"/>
<path d="M555.381 317.862C555.391 317.291 555.57 316.735 555.897 316.266C556.224 315.797 556.682 315.436 557.215 315.228C557.748 315.021 558.33 314.977 558.888 315.101C559.445 315.226 559.954 315.513 560.348 315.927C560.741 316.342 561.003 316.864 561.099 317.427C561.196 317.991 561.122 318.57 560.888 319.091C560.654 319.613 560.27 320.053 559.785 320.355C559.3 320.658 558.736 320.809 558.165 320.79C557.409 320.765 556.694 320.444 556.173 319.896C555.652 319.349 555.368 318.618 555.381 317.862Z" fill="#EBEBEB"/>
<path d="M295.998 350.416C386.778 350.416 460.37 276.825 460.37 186.045C460.37 95.2651 386.778 21.6736 295.998 21.6736C205.219 21.6736 131.627 95.2651 131.627 186.045C131.627 276.825 205.219 350.416 295.998 350.416Z" fill="#F5F5F5"/>
<path d="M436.696 129.597C435.342 127.955 435.16 122.57 431.896 125.651C432.117 122.944 431.032 116.493 435.842 117.088C441.083 117.75 438.722 123.434 439.902 126.352C441.333 129.77 446.104 130.048 448.83 131.987C450.674 133.302 451.778 135.251 452.824 136.787C445.958 114.975 434.608 94.8388 419.502 77.6704C419.502 77.7952 419.502 77.9296 419.502 78.064C416.027 77.824 412.898 82.4608 413.541 85.3696C413.646 85.8592 415.058 86.7136 415.23 87.7696C415.403 88.8256 414.491 89.2768 414.462 90.1024C414.386 92.0224 413.886 93.856 416.488 94.3744C418.168 91.168 421.941 94.9696 422.709 97.1008C424.053 100.835 422.421 102.717 425.07 105.741C426.098 106.912 429.15 108.352 428.536 110.416C427.922 112.48 426.376 112.086 424.869 111.51C422.44 110.55 421.134 106.922 418.283 106.816C416.363 111.558 418.158 117.702 416.661 122.752C415.826 125.565 414.798 125.68 417.227 127.763C418.101 128.512 418.696 127.677 419.723 128.886C420.328 129.606 420.338 131.152 420.27 132.035C421.614 131.219 422.805 129.962 424.523 130.115C421.95 132.333 422.354 136.47 420.568 139.293C418.331 142.826 416.469 141.645 413.397 143.056C408.03 145.533 410.805 150.352 410.229 154.346C409.902 156.678 407.973 158.646 407.061 160.883C405.728 164.015 404.992 167.369 404.891 170.771C404.824 174.784 406.11 178.451 406.878 182.291C407.493 185.44 407.502 191.478 410.584 193.302C412.504 194.406 418.427 194.195 420.942 194.57C423.458 194.944 426.414 193.61 428.536 194.704C430.658 195.798 430.341 199.13 433.058 198.362C434.584 197.93 435.467 194.349 437.378 193.677C440.44 192.602 442.859 195.405 443.704 197.814C444.779 200.867 443.186 200.982 442.36 204.246C441.707 206.819 442.36 209.546 443.186 211.926C444.894 216.794 443.003 214.662 441.266 219.194C442.546 219.532 443.869 219.681 445.192 219.635C445.288 221.373 445.662 223.936 445.259 225.645C444.136 230.445 439.499 233.046 439.269 238.586C439.048 243.645 441.371 249.75 440.411 254.704C439.71 258.342 435.611 260.704 436.283 264.909C438.578 263.43 440.325 261.069 442.84 259.859C461.096 223.614 465.295 181.896 454.629 142.739C451.791 141.467 449.248 139.62 447.16 137.315C444.29 134.33 439.288 132.717 436.696 129.597Z" fill="#EBEBEB"/>
<path d="M317.81 26.368C319.826 26.7328 322.101 26.704 324.098 27.1936C326.354 27.7408 327.938 29.2864 330.414 28.3072C331.539 27.7942 332.497 26.976 333.179 25.9456C292.498 16.4823 249.739 22.8815 213.611 43.84C219.899 44.2336 218.488 51.2896 223.902 45.4816C226.312 42.8896 228.99 39.3472 232.062 37.0816C235.499 34.5376 239.435 36.256 243.582 36.1216C242.2 37.0816 234.472 42.6688 235.326 44.4832C236.507 46.9888 240.789 43.9552 239.109 48.784C237.611 53.0848 231.486 50.1568 227.694 50.4448C224.757 50.6752 223.154 52.6432 220.014 52.7968C216.683 52.96 213.342 52.0192 210.098 52.1152C204.914 52.2688 201.592 55.2544 198.434 58.8928C196.61 61.0048 194.44 62.5792 193.106 65.1232C191.646 67.9072 192.232 71.5456 190.869 74.0416C189.698 76.192 187.029 76.5472 185.109 77.824C182.563 79.6485 180.243 81.769 178.197 84.1408C175.115 87.7216 173.733 94.5376 168.472 95.8336C167.723 101.373 176.152 93.6544 178.61 94.7584C179.886 93.0688 180.386 90.832 182.277 89.5648C184.168 88.2976 186.837 88.5184 188.997 87.136C193.115 84.5056 191.79 78.736 196.926 77.7568C201.074 76.9696 205.72 76.1632 206.738 80.7232C207.246 82.9888 206.363 82.7776 206.296 84.9664C206.2 87.8464 205.97 86.0992 208.158 87.8464C211.461 90.5632 211.998 93.8368 209.416 97.6672C208.178 99.4816 207.496 99.232 206.738 101.584C205.979 103.936 206.248 106.461 206.334 108.928C206.421 111.683 206.152 114.362 206.066 117.117C205.922 121.706 207.026 123.414 210.654 126.304C213.41 128.502 216.347 130.144 217.768 133.552C218.997 136.528 218.728 140.09 219.582 143.152C220.427 146.349 228.386 153.03 227.512 147.338C227.061 144.4 223.72 143.738 223.739 140.157C223.739 138.707 224.334 136.576 224.488 135.05C229.048 133.802 227.848 141.578 229.067 143.901C230.805 147.194 235.346 149.315 237.707 151.926C235.509 152.954 231.803 155.104 233.022 158.147C234.578 161.987 239.483 159.309 242.19 159.376C248.104 159.51 253.979 163.466 258.798 166.624C263.387 169.629 265.24 171.424 271.019 170.992C274.628 170.623 278.264 171.338 281.464 173.046C283.862 174.133 285.798 176.034 286.926 178.413C288.76 181.898 289.586 183.136 292.686 185.507C294.702 187.053 295.758 188.733 297.995 188.618C299.531 188.55 300.645 186.304 302.987 187.034C307.442 188.416 306.146 194.08 304.686 196.634C303.458 198.822 302.306 201.645 300.942 203.814C299.195 206.579 294.626 207.606 294.098 211.254C293.598 214.72 297.458 218.685 298.312 221.958C299.09 224.925 299.003 228.198 299.003 231.232C297.083 234.035 308.757 243.942 310.936 245.843C314.123 248.618 318.77 252.304 320.008 256.538C320.517 258.275 320.219 261.002 320.392 262.835C320.759 266.712 320.852 270.609 320.67 274.499C320.411 280.173 316.331 283.638 315.371 289.014C314.594 293.325 316.13 297.856 315.477 302.118C315.179 304.038 314.805 306.765 314.325 308.646C313.845 310.528 312.923 310.509 312.165 311.843C310.802 314.224 311.493 316.576 312.645 319.149C316.254 316.547 319.25 321.462 320.949 323.949C323.07 327.059 325.605 328.298 330.002 327.789C328.274 326.368 325.365 321.722 325.96 319.149C326.834 315.395 332.248 312.362 334.072 309.222C336.04 305.834 335.483 302.666 339.554 301.158C340.696 300.736 342.04 300.947 343.182 300.477C344.603 299.891 345.362 298.557 346.744 297.894C350.526 296.099 351.39 296.579 352.965 292.365C354.885 287.267 356.517 280.845 361.365 277.581C363.285 276.304 365.368 276.39 367.442 275.498C369.717 274.538 370.427 272.963 372.242 271.658C374.97 269.801 377.44 267.59 379.586 265.082C382.122 262.065 384.324 258.781 386.152 255.29C387.371 253.091 387.899 251.046 389.742 249.28C390.52 248.531 391.71 248.234 392.622 247.36C395.954 244.038 397.202 238.72 400.091 235.082C401.714 233.027 403.317 231.866 404.21 229.494C403.864 228.697 403.426 227.943 402.904 227.248C402.203 225.971 400.485 224.79 399.63 223.475C399.333 223.014 399.227 221.555 398.93 221.277C396.539 218.723 390.75 217.379 387.525 217.245C383.118 217.072 376.514 216.39 373.634 212.445C371.493 209.478 375.16 205.264 373.749 202.106C372.002 198.16 362.824 196.259 359.301 194.118C356.872 192.64 355.23 190.394 352.821 188.886C349.298 186.688 347.186 185.776 345.688 181.898C344.786 179.574 346.168 179.181 343.355 178.298C340.734 177.482 336.635 179.766 333.698 179.997C331.518 180.17 329.061 180.621 326.978 179.997C324.386 179.219 322.475 176.282 319.778 175.782C317.349 175.322 312.558 176.464 310.331 177.933C308.411 179.162 307.451 181.379 305.378 182.339C302.382 183.731 302.594 181.907 299.694 181.658C296.795 181.408 295.298 182.992 293.08 179.738C290.075 175.283 291.294 166.182 284.219 165.722C282.117 165.587 278.066 167.354 276.77 164.656C274.85 160.682 281.723 155.411 280.734 151.11C279.698 146.637 271.346 152.522 269.464 154.95C268.264 156.534 267.314 160.403 264.789 160.71C262.869 160.912 258.981 158.406 257.829 157.014C255.822 154.586 255.698 149.872 255.41 146.81C254.862 141.05 256.187 139.254 260.21 134.954C263.762 131.114 264.491 130.826 269.042 130.029C271.835 129.539 271.806 128.55 274.178 129.789C275.31 130.384 276.011 132.15 277.394 132.717C279.314 130.797 280.629 130.24 283.221 130.749C285.083 131.123 288.981 133.283 290.008 135.03C290.632 136.096 291.611 145.667 295.058 139.83C293.051 138.179 293.589 136.23 292.773 134.397C291.957 132.563 290.094 131.229 289.749 128.934C289.336 126.266 291.669 120.707 294.712 120.122L294.386 117.126C297.755 116.656 301.758 108.486 301.106 104.464C300.76 102.458 298.581 102.611 299.742 99.7216C301.106 96.3424 303.458 98.1088 306.318 97.4848C309.179 96.8608 308.766 94.9792 310.811 93.4624C313.038 91.792 314.085 93.0688 315.976 93.1552C319.528 93.3088 324.184 94.1152 324.443 89.1808C326.613 88.8832 328.504 88.2208 330.674 89.1232C330.962 85.2832 330.107 82.48 326.834 80.2624C323.954 78.3424 320.114 77.728 317.099 75.8176C315.179 74.5888 313.787 72.8032 311.954 71.4976C308.997 69.3856 306.962 67.0528 304.274 64.672C300.866 61.6384 297.554 65.4688 293.07 64.8448C287.09 64 287.474 59.4976 283.778 56.8288C283.355 56.5216 282.136 56.9344 281.589 56.6656C280.614 55.9396 279.726 55.1054 278.939 54.1792C276.817 51.999 275.468 49.1832 275.099 46.1632C281.694 42.3232 283.365 51.4048 286.12 54.688C287.368 56.176 292.274 57.1072 288.434 59.488C291.093 59.6704 293.454 59.2768 295.941 59.872C297.112 60.1408 298.11 60.832 299.387 60.832C299.646 58.7872 298.917 56.7808 298.514 54.8128C298.322 53.9104 298.581 52.9792 298.206 52.1056C297.659 50.8288 296.286 50.1856 295.797 49.1392C294.338 46.096 296.162 46.096 292.84 44.2624C290.555 43.0048 287.8 42.1024 285.438 41.0368C283.757 40.4501 282.194 39.5692 280.821 38.4352C280.235 37.8496 276.52 33.9424 276.242 33.232C273.611 26.7136 283.845 32.6368 286.187 33.232C290.035 34.2522 293.815 35.5123 297.506 37.0048C300.52 38.1568 300.568 38.8288 301.73 41.8048C303.822 47.2576 306.76 44.6848 310.091 48.304C312.098 50.4928 313.662 54.448 315.39 57.04C317.57 60.3232 326.133 70.576 330.914 65.68C333.477 63.04 328.523 58.4224 328.427 55.8496C328.322 53.1136 330.174 51.424 332.066 49.936C335.243 47.4304 335.982 46.3936 332.219 43.36C327.602 39.6256 322.523 39.0208 317.013 37.2736C311.032 35.3536 309.438 31.9168 306.405 27.0688C308.402 26.704 310.504 26.5408 312.549 26.3584C314.295 26.1318 316.064 26.135 317.81 26.368ZM256.869 68.512C256.091 70.5568 254.661 69.9232 253.326 70.9696C251.272 72.5728 254.901 75.424 253.432 76.4704C252.914 76.8448 250.082 76.6912 249.438 76.4704C247.797 75.9232 247.288 74.7616 245.368 74.7808C242.843 74.7808 240.309 74.3104 240.866 71.1328C241.125 69.6448 242.632 68.1664 241.922 66.5344C241.226 65.5297 240.343 64.6691 239.32 64C238.658 63.5392 237.832 63.6064 237.256 63.2416C235.941 62.4256 236.44 59.2 237.89 58.6336C237.938 63.088 244.542 59.0656 245.915 61.1104C247.288 63.1552 244.552 63.9904 246.28 65.2864C247.288 66.0736 249.938 66.0736 250.946 65.776C252.501 65.3248 255.093 62.9824 256.629 64.6816C257.224 65.4208 257.186 67.6864 256.869 68.512ZM278.037 60.6784C279.678 61.1488 279.39 61.936 280.245 63.232C281.205 64.7008 282.846 64.5664 284.008 65.632C286.206 67.6576 282.731 70.3264 284.008 72.832C285.131 75.0112 297.688 78.2752 289.49 80.944C287.09 81.7216 285.65 80.1472 283.49 79.5328C281.131 79.0501 278.68 79.3187 276.482 80.3008C272.478 82.624 281.445 86.9344 275.915 88.6048C274.792 88.9504 271.115 88.7296 270.77 87.3376C270.424 86.1088 272.152 86.128 272.507 84.9472C273.918 80.3008 268.216 83.1712 266.622 82.768C264.376 82.192 265.077 78.16 266.862 77.248C267.822 76.7584 270.27 77.0176 271.346 76.9984C273.102 76.9984 274.859 77.2384 276.616 77.0848C277.432 73.7056 272.363 71.9968 269.704 71.632C267.611 71.3536 267.333 70.9312 265.605 69.712C263.522 68.1952 262.61 68.6176 264.069 65.872C265.346 63.4528 267.429 62.1664 269.502 60.5344C270.462 60.0544 271.24 61.0624 272.19 61.168C274.139 61.3216 276.117 60.16 278.037 60.6784Z" fill="#EBEBEB"/>
<path d="M292.494 146.406C290.622 145.754 283.95 148.163 286.686 150.131C288.539 151.475 292.936 149.747 295.202 150.275C297.467 150.803 300.28 149.958 302.498 150.861C304.139 151.533 305.032 153.05 306.856 153.501C309.074 154.058 310.245 153.155 308.181 151.437C306.731 150.227 304.715 149.901 303.026 149.114C301.749 148.528 300.597 147.376 299.32 147.03C297.621 146.56 293.829 148.115 292.494 146.406Z" fill="#EBEBEB"/>
<path d="M315.803 156.4C314.162 157.437 312.597 157.955 312.05 160.067C311.406 162.544 312.434 162.083 314.104 161.123C315.16 160.509 316.619 159.472 317.944 159.539C319.269 159.606 320.296 160.557 321.544 160.778C322.643 161.024 323.783 161.021 324.881 160.77C325.978 160.519 327.006 160.027 327.89 159.328C329.262 158.128 329.368 156.573 327.227 156.227C325.605 155.968 323.003 156.765 321.314 156.938C319.624 157.11 316.715 157.216 315.803 156.4Z" fill="#EBEBEB"/>
<path d="M393.515 314.224C389.752 316.806 387.467 320.339 383.022 322.173C378.222 324.15 373.672 326.886 368.718 328.893C363.765 330.899 358.36 334 353.224 335.248C348.933 336.294 344.104 334.288 339.784 334.374C335.292 334.587 330.84 335.318 326.517 336.554C323.531 337.322 323.637 336.774 321.304 335.882C320.183 335.343 318.965 335.036 317.723 334.979C316.253 334.949 314.785 334.84 313.326 334.653C313.25 336.717 317.81 340.902 319.538 342.218C306.098 343.379 291.794 341.68 278.44 340.298C274.504 339.894 272.171 341.603 268.418 342.083C264.952 342.534 262.014 340.662 258.52 340.634C254.315 340.634 252.472 341.469 250.677 344.09C276.471 351.493 303.687 352.463 329.943 346.915C356.199 341.368 380.696 329.471 401.291 312.266C401.284 311.742 401.243 311.219 401.166 310.701C398.997 311.546 395.493 312.861 393.515 314.224Z" fill="#EBEBEB"/>
<path d="M136.715 187.686C137.441 186.017 137.696 184.181 137.454 182.378C137.013 180.515 136.139 180.678 135.285 179.19C132.914 175.091 136.446 174.602 136.437 171.155C136.437 169.139 132.251 164.339 135.026 162.285C136.274 161.325 140.786 163.61 143.08 162.659C142.677 159.347 139.422 160.355 138.098 158.109C136.12 154.739 139.403 154.038 140.421 152.541C143.723 147.741 139.048 145.235 137.858 141.261C133.725 155.83 131.628 170.901 131.627 186.045C131.627 186.63 131.627 187.216 131.675 187.811C132.875 186.755 134.44 186.458 136.715 187.686Z" fill="#EBEBEB"/>
<path d="M142.13 141.03C143.781 140.512 143.138 136.48 143.445 135.386C144.588 131.977 146.203 128.745 148.245 125.786C150.962 121.734 149.752 120.227 149.147 115.283C149.042 114.448 148.984 113.536 148.917 112.643C144.87 120.702 141.499 129.083 138.837 137.699C139.787 139.072 140.987 141.395 142.13 141.03Z" fill="#EBEBEB"/>
<path d="M138.453 168.054C135.899 175.581 143.954 176.694 144.117 182.877C144.174 185.171 142.994 193.072 147.794 192.477C149.714 188.099 146.622 187.494 147.179 183.434C147.554 180.688 149.531 179.901 146.459 177.674C145.614 177.04 144.107 177.021 143.426 176.358C142.466 175.446 142.658 174.198 142.082 173.286C141.054 171.626 139.48 170.56 138.453 168.054Z" fill="#EBEBEB"/>
<path d="M138.453 194.032C136.418 198.515 132.693 214.662 139.931 214.96C140.738 214.96 142.216 213.52 143.042 214.067C143.694 214.499 143.128 216.179 143.426 216.352C145.298 217.408 145.778 217.667 146.526 214.432C147.122 211.869 145.816 211.763 145.442 210.016C145.204 208.487 145.188 206.932 145.394 205.398C140.699 204.246 150.194 203.248 149.81 201.357C149.531 199.917 142.514 200.33 141.506 200.646C141.363 199.344 141.434 198.028 141.717 196.749C140.152 196.048 139.672 194.397 138.453 194.032Z" fill="#EBEBEB"/>
<path d="M162.098 208.691C158.008 208.931 155.867 205.206 151.067 206.666C151.067 207.626 150.808 208.739 150.808 209.651C151.893 209.325 156.923 208.144 156.117 211.043C155.445 213.462 151.067 210.4 151.826 213.971C153.074 213.827 155.042 212.896 156.27 213.011C158.056 213.242 158.757 214.202 160.437 214.576C162.664 215.056 162.357 213.952 164.738 215.632C166.581 216.938 168.491 218.944 169.096 220.97C170.392 225.27 168.472 226.97 173.992 227.642C176.872 227.997 182.968 231.136 182.786 226.403C185.531 227.363 189.736 235.504 193.413 234.678C198.021 233.651 189.102 226.48 189.131 225.683C190.946 225.52 194.978 223.763 196.37 222.957C197.762 222.15 199.25 222.266 198.693 219.357C196.514 219.098 195.554 220.154 193.893 220.586C191.891 221.016 189.833 221.123 187.797 220.902C182.775 220.529 178.004 218.565 174.174 215.296C171.976 213.491 170.094 211.994 167.8 210.294C166.302 209.19 166.35 208.49 164.632 207.99C164.185 207.878 163.717 207.884 163.272 208.007C162.828 208.13 162.424 208.366 162.098 208.691Z" fill="#EBEBEB"/>
<path d="M139.115 219.347C142.053 219.347 145.192 219.702 148.11 219.347C149.07 219.222 150.27 217.61 151.394 218.742C151.797 219.155 151.48 221.747 151.115 222.15C149.339 224.128 139.547 223.494 140.114 219.674" fill="#EBEBEB"/>
<path d="M184.072 242.368C183.794 237.194 181.797 237.904 179.406 234.592C178.581 236.733 177.659 241.024 174.77 241.312C170.498 241.773 169.816 235.389 167.262 233.632C163.605 231.136 155.291 233.565 154.437 236.963C151.038 238.298 150.818 239.901 149.445 242.723C148.451 244.76 147.309 246.72 146.027 248.589C145.616 249.178 145.17 249.742 144.693 250.278C147.845 257.672 151.534 264.824 155.733 271.677C156.118 271.802 156.518 271.877 156.923 271.898C160.542 272.186 162.472 268.192 165.362 268.566C167.464 268.835 169 272.406 170.728 273.808C175.528 277.763 183.554 280.701 185.416 286.547C186.549 290.09 187.95 291.626 190.168 294.669C191.723 296.79 191.406 300.554 193.691 301.85C193.759 298.51 194.194 295.187 194.987 291.942C196.11 287.882 194.92 284.522 196.802 280.912C198.683 277.302 201.688 274.326 201.352 269.824C201.122 266.762 198.846 262.893 196.667 260.694C190.437 254.474 184.6 252.16 184.072 242.368Z" fill="#EBEBEB"/>
<path d="M225.717 277.302C223.048 277.811 223.97 283.005 223.211 285.126C222.146 288.112 221.08 287.805 217.95 288.621C215.948 289.019 213.981 289.575 212.066 290.282C209.186 291.626 208.936 294.026 208.091 296.906C211.682 297.203 213.746 293.008 216.971 292.336C219.746 291.77 222.021 293.018 224.901 291.76C232.13 288.611 230.334 281.488 231.323 275.69C229.182 275.306 227.714 276.592 225.717 277.302Z" fill="#EBEBEB"/>
<path d="M228.76 246.995C227.8 249.136 228.76 254.253 231.918 251.152C233.378 249.712 233.262 246.179 230.478 246.352C230.478 246.794 230.267 246.918 230.094 247.312" fill="#EBEBEB"/>
<path d="M252.357 252.323C249.755 254.368 255.362 257.834 256.283 254.579C256.965 252.227 253.211 251.45 252.357 252.323Z" fill="#EBEBEB"/>
<path d="M210.395 195.702C211.154 197.622 216.069 199.158 216.981 202.346C217.816 205.283 216.981 207.846 221.339 207.971C221.234 205.869 222.386 203.114 221.406 201.251C220.965 200.416 219.486 200.291 218.958 199.331C218.43 198.371 218.814 197.229 218.382 196.326C217.461 194.445 209.397 190.01 210.395 195.702Z" fill="#EBEBEB"/>
<g style="mix-blend-mode:multiply">
<g style="mix-blend-mode:multiply">
<path d="M335.128 342.794C297.952 342.793 261.819 330.506 232.349 307.842C202.88 285.179 181.728 253.411 172.184 217.481C162.64 181.551 165.239 143.474 179.578 109.174C193.916 74.8746 219.188 46.2757 251.464 27.8272C230.55 33.867 211.044 44.0009 194.078 57.6407C177.113 71.2804 163.026 88.1542 152.634 107.283C142.243 126.411 135.755 147.413 133.547 169.069C131.338 190.726 133.453 212.605 139.77 233.437C146.086 254.269 156.477 273.639 170.34 290.423C184.203 307.207 201.262 321.069 220.526 331.206C239.791 341.343 260.877 347.553 282.56 349.475C304.244 351.396 326.093 348.991 346.84 342.4C343 342.621 339.083 342.794 335.128 342.794Z" fill="#FAFAFA"/>
</g>
</g>
<path d="M324.76 384.419L325.298 385.379C325.898 386.47 326.802 387.363 327.899 387.952L328.859 388.48L327.899 389.018C326.798 389.601 325.893 390.496 325.298 391.59L324.76 392.55L324.222 391.59C323.628 390.498 322.727 389.604 321.63 389.018L320.67 388.48L321.63 387.952C322.723 387.36 323.622 386.467 324.222 385.379L324.76 384.419Z" fill="#EBEBEB"/>
<path d="M131.627 346.336L132.165 347.296C132.766 348.387 133.669 349.28 134.766 349.869L135.726 350.406L134.766 350.934C133.669 351.523 132.766 352.416 132.165 353.507L131.627 354.467L131.099 353.507C130.493 352.421 129.591 351.529 128.498 350.934L127.538 350.406L128.498 349.869C129.591 349.275 130.493 348.382 131.099 347.296L131.627 346.336Z" fill="#EBEBEB"/>
<path d="M160.6 48.496L161.128 49.456C161.731 50.5447 162.634 51.4376 163.73 52.0288L164.69 52.5664L163.73 53.0944C162.636 53.6886 161.734 54.5808 161.128 55.6672L160.6 56.6272L160.062 55.6672C159.462 54.5765 158.558 53.683 157.461 53.0944L156.501 52.5664L157.461 52.0288C158.56 51.4429 159.464 50.5487 160.062 49.456L160.6 48.496Z" fill="#EBEBEB"/>
<path d="M567.64 211.322L568.6 212.992C569.624 214.87 571.167 216.413 573.045 217.437L574.715 218.349L573.045 219.309C571.168 220.329 569.624 221.869 568.6 223.744L567.64 225.424L566.728 223.744C565.701 221.871 564.159 220.332 562.283 219.309L560.613 218.349L562.283 217.437C564.159 216.411 565.702 214.868 566.728 212.992L567.64 211.322Z" fill="#EBEBEB"/>
<path d="M467.272 44.4256L467.8 45.3856C468.406 46.472 469.309 47.3642 470.402 47.9584L471.362 48.4864L470.402 49.024C469.309 49.6182 468.406 50.5104 467.8 51.5968L467.272 52.5568L466.734 51.5968C466.128 50.5104 465.226 49.6182 464.133 49.024L463.173 48.4864L464.133 47.9584C465.226 47.3642 466.128 46.472 466.734 45.3856L467.272 44.4256Z" fill="#EBEBEB"/>
<path d="M365.368 0.332802L365.896 1.2928C366.502 2.37925 367.404 3.27139 368.498 3.8656L369.458 4.3936L368.498 4.9312C367.404 5.52542 366.502 6.41756 365.896 7.504L365.368 8.464L364.83 7.504C364.217 6.41515 363.304 5.52542 362.2 4.9408L361.24 4.4032L362.2 3.8752C363.295 3.28357 364.198 2.39079 364.802 1.3024L365.368 0.332802Z" fill="#EBEBEB"/>
<path d="M37.2208 264.429L38.1808 266.099C39.2044 267.977 40.7475 269.52 42.6256 270.544L44.296 271.504L42.6256 272.416C40.7495 273.442 39.207 274.985 38.1808 276.861L37.2208 278.531L36.2608 276.861C35.2346 274.985 33.692 273.442 31.816 272.416L30.1456 271.504L31.816 270.544C33.694 269.52 35.2372 267.977 36.2608 266.099L37.2208 264.429Z" fill="#EBEBEB"/>
<path d="M508.446 104.694C521.823 104.694 532.667 93.8504 532.667 80.4736C532.667 67.0968 521.823 56.2528 508.446 56.2528C495.07 56.2528 484.226 67.0968 484.226 80.4736C484.226 93.8504 495.07 104.694 508.446 104.694Z" fill="#455A64"/>
<path d="M516.338 71.2C516.355 70.4168 516.605 69.6564 517.055 69.0153C517.505 68.3742 518.135 67.8811 518.866 67.5987C519.597 67.3164 520.395 67.2573 521.159 67.4291C521.924 67.6009 522.62 67.9958 523.159 68.5637C523.699 69.1316 524.058 69.847 524.19 70.6191C524.323 71.3912 524.223 72.1852 523.904 72.9005C523.584 73.6159 523.06 74.2202 522.396 74.637C521.733 75.0538 520.961 75.2642 520.178 75.2416C519.135 75.2089 518.146 74.7663 517.427 74.0096C516.708 73.253 516.317 72.2435 516.338 71.2Z" fill="#263238"/>
<path d="M524.238 80.416C524.248 79.9601 524.393 79.5172 524.654 79.1436C524.916 78.77 525.282 78.4824 525.707 78.3172C526.132 78.152 526.597 78.1167 527.042 78.2157C527.487 78.3147 527.893 78.5436 528.208 78.8734C528.523 79.2032 528.733 79.619 528.811 80.0683C528.89 80.5175 528.833 80.9799 528.649 81.397C528.464 81.814 528.16 82.1669 527.775 82.411C527.39 82.655 526.941 82.7793 526.485 82.768C526.182 82.763 525.884 82.698 525.607 82.5768C525.329 82.4555 525.079 82.2804 524.87 82.0616C524.661 81.8428 524.498 81.5846 524.389 81.3021C524.281 81.0197 524.23 80.7185 524.238 80.416Z" fill="#263238"/>
<path d="M521.157 87.472C521.327 87.474 521.492 87.5265 521.632 87.6229C521.771 87.7193 521.879 87.8551 521.942 88.0131C522.004 88.171 522.018 88.3439 521.981 88.5098C521.945 88.6756 521.86 88.8268 521.737 88.9441C521.614 89.0614 521.459 89.1394 521.292 89.1683C521.125 89.1972 520.953 89.1756 520.798 89.1062C520.643 89.0368 520.512 88.9228 520.422 88.7788C520.332 88.6348 520.287 88.4673 520.293 88.2976C520.295 88.1867 520.32 88.0773 520.364 87.9757C520.409 87.8742 520.474 87.7825 520.554 87.7058C520.634 87.6291 520.729 87.569 520.832 87.5289C520.936 87.4888 521.046 87.4694 521.157 87.472Z" fill="#263238"/>
<path d="M47.704 144.64L48.2416 145.6C48.8342 146.687 49.7274 147.58 50.8144 148.173L51.7744 148.701L50.8144 149.238C49.7376 149.845 48.8578 150.748 48.28 151.84L47.7424 152.8L47.2144 151.84C46.6193 150.755 45.7267 149.862 44.6416 149.267L43.6816 148.73L44.6416 148.202C45.7267 147.606 46.6193 146.714 47.2144 145.629L47.704 144.64Z" fill="#455A64"/>
<path d="M238.965 89.0176L239.493 89.9776C240.088 91.0626 240.981 91.9552 242.066 92.5504L243.026 93.0784L242.066 93.6064C240.978 94.2028 240.085 95.0992 239.493 96.1888L238.965 97.1488L238.437 96.1888C237.844 95.0992 236.951 94.2028 235.864 93.6064L234.904 93.0784L235.864 92.5504C236.949 91.9552 237.842 91.0626 238.437 89.9776L238.965 89.0176Z" fill="#455A64"/>
<path d="M171.822 65.3056L172.082 65.7856C172.379 66.328 172.826 66.7742 173.368 67.072L173.858 67.3408L173.368 67.6096C172.84 67.9131 172.407 68.3588 172.12 68.896L171.861 69.376L171.592 68.896C171.297 68.3513 170.85 67.9043 170.306 67.6096L169.826 67.3408L170.306 67.072C170.85 66.7773 171.297 66.3303 171.592 65.7856L171.822 65.3056Z" fill="#455A64"/>
<path d="M448.859 80.7328L449.128 81.2224C449.426 81.7648 449.872 82.211 450.414 82.5088L450.894 82.768L450.414 83.0368C449.87 83.3315 449.423 83.7785 449.128 84.3232L448.859 84.8032L448.6 84.3232C448.302 83.7808 447.856 83.3346 447.314 83.0368L446.824 82.768L447.314 82.5088C447.854 82.2085 448.3 81.7629 448.6 81.2224L448.859 80.7328Z" fill="#455A64"/>
<path d="M512.565 162.064L512.834 162.544C513.132 163.086 513.578 163.533 514.12 163.83L514.61 164.099L514.12 164.368C513.578 164.666 513.132 165.112 512.834 165.654L512.565 166.134L512.306 165.654C512.008 165.112 511.562 164.666 511.019 164.368L510.53 164.099L511 163.84C511.543 163.542 511.989 163.096 512.287 162.554L512.565 162.064Z" fill="#455A64"/>
<path d="M428.507 360.15L428.776 360.64C429.074 361.182 429.52 361.629 430.062 361.926L430.542 362.186L430.062 362.454C429.52 362.752 429.074 363.198 428.776 363.741L428.507 364.23L428.248 363.741C427.948 363.2 427.502 362.755 426.962 362.454L426.472 362.186L426.962 361.926C427.502 361.626 427.948 361.18 428.248 360.64L428.507 360.15Z" fill="#455A64"/>
<path d="M517.211 279.818L517.47 280.307C517.771 280.848 518.216 281.293 518.757 281.594L519.246 281.853L518.757 282.122C518.214 282.419 517.768 282.866 517.47 283.408L517.211 283.888L516.942 283.408C516.648 282.863 516.201 282.416 515.656 282.122L515.176 281.853L515.656 281.594C516.198 281.296 516.645 280.85 516.942 280.307L517.211 279.818Z" fill="#455A64"/>
<path d="M310.936 302.637L311.205 303.126C311.503 303.669 311.949 304.115 312.491 304.413L312.971 304.672L312.491 304.941C311.947 305.235 311.5 305.683 311.205 306.227L310.936 306.717L310.677 306.227C310.379 305.693 309.936 305.254 309.4 304.96L308.91 304.691L309.4 304.432C309.941 304.132 310.386 303.686 310.686 303.146L310.936 302.637Z" fill="#455A64"/>
<path d="M182.094 279.818L182.354 280.307C182.654 280.848 183.1 281.293 183.64 281.594L184.13 281.853L183.64 282.122C183.098 282.419 182.651 282.866 182.354 283.408L182.094 283.888L181.826 283.408C181.528 282.866 181.082 282.419 180.539 282.122L180.05 281.853L180.539 281.594C181.08 281.293 181.525 280.848 181.826 280.307L182.094 279.818Z" fill="#455A64"/>
<path d="M2.89122 159.933L3.16002 160.413C3.45781 160.955 3.90405 161.401 4.44642 161.699L4.93602 161.968L4.44642 162.227C3.90337 162.528 3.45722 162.978 3.16002 163.523L2.89122 164.003L2.63202 163.523C2.33482 162.978 1.88867 162.528 1.34562 162.227L0.856018 161.968L1.34562 161.699C1.88799 161.401 2.33423 160.955 2.63202 160.413L2.89122 159.933Z" fill="#455A64"/>
<path d="M229.566 310.144L230.526 311.814C231.556 313.688 233.097 315.23 234.971 316.259L236.642 317.219L234.971 318.131C233.097 319.16 231.556 320.702 230.526 322.576L229.566 324.246L228.654 322.576C227.625 320.702 226.083 319.16 224.21 318.131L222.539 317.219L224.21 316.259C226.083 315.23 227.625 313.688 228.654 311.814L229.566 310.144Z" fill="#455A64"/>
<path d="M406.101 130.518L407.061 132.189C408.084 134.067 409.628 135.61 411.506 136.634L413.176 137.594L411.506 138.554C409.628 139.577 408.084 141.12 407.061 142.998L406.101 144.669L405.141 142.998C404.117 141.12 402.574 139.577 400.696 138.554L399.026 137.594L400.696 136.634C402.574 135.61 404.117 134.067 405.141 132.189L406.101 130.518Z" fill="#455A64"/>
<path d="M501.582 324.381C501.582 324.515 477.966 321.405 448.878 317.421C419.79 313.437 396.232 310.096 396.251 309.962C396.27 309.827 419.858 312.938 448.955 316.922C478.053 320.906 501.602 324.246 501.582 324.381Z" fill="#263238"/>
<path d="M162.779 116.234C162.779 116.368 143.973 113.181 120.846 109.11C97.72 105.04 79 101.632 79 101.488C79 101.344 97.7968 104.541 120.942 108.611C144.088 112.682 162.798 116.09 162.779 116.234Z" fill="#263238"/>
<path d="M110.45 97.3024C110.45 97.4368 98.7376 95.3248 84.3568 92.5792C69.976 89.8336 58.3216 87.5008 58.3504 87.3664C58.3792 87.232 70.0528 89.344 84.4432 92.0896C98.8336 94.8352 110.478 97.168 110.45 97.3024Z" fill="#263238"/>
<path d="M523.643 335.68C523.643 335.814 511.903 334.211 497.474 332.09C483.045 329.968 471.362 328.144 471.381 328.01C471.4 327.875 483.16 329.459 497.56 331.581C511.96 333.702 523.663 335.526 523.643 335.68Z" fill="#263238"/>
<path d="M318.242 169.034C317.406 169.773 292.446 172.739 292.446 172.739L275.349 164.915L269.339 171.712C269.339 171.712 289.499 182.934 291.64 183.232C293.781 183.53 309.237 181.744 309.237 181.744L318.242 169.034Z" fill="#455A64"/>
<path d="M267.65 170.291C265.558 169.631 263.504 168.859 261.496 167.978C258.77 166.634 258.885 166.394 259.096 166.106C259.662 165.318 263.982 168.275 263.426 167.066C262.869 165.856 257.723 164.061 258.338 163.226C259.154 162.189 263.627 165.366 264.021 165.606C264.414 165.846 264.779 165.28 264.414 165.078C263.877 164.8 258.347 161.661 259.134 160.643C259.576 160.077 260.517 160.95 260.517 160.95C260.517 160.95 265.48 164.262 265.835 163.773C266.19 163.283 263.349 161.229 262.341 160.605C261.333 159.981 261.227 159.27 261.87 159.05C262.302 158.906 265.432 160.739 266.421 161.373C267.41 162.006 270.069 163.802 269.474 161.853C268.878 159.904 269.157 158.176 269.56 157.763C269.66 157.675 269.786 157.62 269.919 157.608C270.053 157.596 270.186 157.626 270.302 157.694C270.417 157.762 270.507 157.865 270.56 157.988C270.613 158.111 270.626 158.247 270.597 158.378C270.574 159.069 270.645 159.76 270.808 160.432C270.924 160.974 271.128 161.493 271.413 161.968C271.749 162.515 272.046 162.928 272.325 163.35C272.765 163.953 272.955 164.704 272.853 165.443C272.613 166.538 269.08 170.618 269.08 170.618L267.65 170.291Z" fill="#263238"/>
<path d="M275.09 165.318L269.954 171.75C269.793 171.95 269.568 172.086 269.316 172.136C269.065 172.185 268.805 172.144 268.581 172.019C268.442 171.942 268.322 171.836 268.229 171.708C268.136 171.58 268.072 171.433 268.042 171.277C268.012 171.122 268.016 170.961 268.054 170.807C268.093 170.654 268.164 170.51 268.264 170.387L273.438 163.974C273.59 163.787 273.8 163.655 274.035 163.601C274.27 163.547 274.516 163.574 274.734 163.677C274.879 163.749 275.005 163.852 275.104 163.979C275.203 164.107 275.272 164.255 275.307 164.412C275.341 164.57 275.339 164.733 275.301 164.89C275.264 165.047 275.191 165.193 275.09 165.318Z" fill="#263238"/>
<path d="M291.582 183.194C291.525 183.136 291.995 182.704 292.542 181.869C293.273 180.799 293.721 179.563 293.845 178.274C293.969 176.985 293.766 175.685 293.253 174.496C292.869 173.536 292.494 173.066 292.562 173.018C293.01 173.364 293.36 173.82 293.579 174.342C294.207 175.569 294.47 176.949 294.337 178.321C294.204 179.692 293.681 180.997 292.83 182.08C292.515 182.55 292.086 182.934 291.582 183.194Z" fill="#263238"/>
<path d="M271.317 169.667C271.632 169.763 271.933 169.902 272.21 170.08L274.552 171.357L282.28 175.562L290.066 179.661L292.427 180.909C292.727 181.045 293.007 181.219 293.262 181.427C292.929 181.355 292.606 181.239 292.302 181.082C291.717 180.842 290.891 180.458 289.864 179.978C287.829 179.018 285.064 177.635 282.002 176.003C278.939 174.371 276.242 172.826 274.322 171.664C273.362 171.078 272.584 170.589 272.056 170.243C271.787 170.082 271.539 169.888 271.317 169.667Z" fill="#263238"/>
<path d="M293.234 181.12C295.642 180.562 298.086 180.174 300.549 179.958C302.992 179.57 305.458 179.346 307.931 179.286C305.523 179.845 303.079 180.233 300.616 180.448C298.173 180.836 295.707 181.061 293.234 181.12Z" fill="#263238"/>
<path d="M262.043 157.264H261.304C260.265 157.264 259.422 158.106 259.422 159.146V169.542C259.422 170.582 260.265 171.424 261.304 171.424H262.043C263.082 171.424 263.925 170.582 263.925 169.542V159.146C263.925 158.106 263.082 157.264 262.043 157.264Z" fill="#455A64"/>
<path d="M333.765 185.392L340.6 186.534C342.016 186.772 343.471 186.513 344.719 185.801C345.966 185.089 346.929 183.968 347.445 182.627L354.261 165.069C354.596 164.203 354.734 163.274 354.664 162.349C354.595 161.423 354.321 160.525 353.861 159.719C353.402 158.912 352.768 158.219 352.007 157.688C351.246 157.157 350.376 156.802 349.461 156.65L348.578 156.496C345.479 155.983 342.297 156.552 339.568 158.108C336.84 159.664 334.729 162.112 333.592 165.04L328.965 176.973C328.628 177.838 328.489 178.768 328.557 179.694C328.625 180.62 328.899 181.519 329.359 182.326C329.819 183.132 330.453 183.826 331.216 184.357C331.978 184.887 332.849 185.241 333.765 185.392Z" fill="#263238"/>
<path d="M330.222 137.834C329.657 137.438 328.993 137.207 328.305 137.165C327.616 137.124 326.929 137.274 326.321 137.599C325.712 137.924 325.206 138.412 324.857 139.007C324.509 139.603 324.332 140.283 324.347 140.973C324.347 141.818 324.539 142.163 324.126 142.394C323.858 142.538 323.166 142.586 322.898 142.787C322.63 142.997 322.408 143.257 322.243 143.554C322.078 143.851 321.974 144.178 321.938 144.515C321.938 146.176 323.253 147.251 324.136 148.662" fill="#263238"/>
<path d="M333.544 137.997C332.812 137.763 332.028 137.744 331.286 137.943C330.544 138.142 329.875 138.551 329.358 139.12C329.163 139.321 329.009 139.558 328.905 139.818C328.801 140.078 328.75 140.357 328.754 140.637C328.806 140.968 328.945 141.28 329.155 141.541C329.366 141.802 329.641 142.003 329.954 142.125C330.585 142.36 331.259 142.458 331.931 142.413C332.404 142.464 332.882 142.418 333.336 142.278C333.79 142.137 334.21 141.906 334.571 141.597C334.865 141.235 335.038 140.792 335.068 140.327C335.097 139.862 334.98 139.4 334.734 139.005C334.479 138.615 334.144 138.284 333.752 138.033C333.36 137.781 332.92 137.615 332.459 137.546" fill="#263238"/>
<path d="M330.357 170.704C329.582 170.603 328.837 170.34 328.17 169.933C327.504 169.525 326.931 168.982 326.488 168.338C326.045 167.694 325.743 166.964 325.601 166.196C325.458 165.428 325.479 164.638 325.662 163.878C326.075 162.131 326.421 160.71 326.421 160.71C326.421 160.71 322.149 159.453 322.667 155.085C322.955 152.618 323.742 148.634 324.386 145.61C324.647 144.356 325.225 143.19 326.066 142.224C326.906 141.257 327.98 140.522 329.186 140.09C334.523 138.573 336.309 140.771 340.226 144.698L340.811 145.283L336.51 166.298C336.227 167.671 335.436 168.888 334.295 169.704C333.155 170.521 331.749 170.878 330.357 170.704Z" fill="#FFBE9D"/>
<path d="M325.25 148.48C325.351 148.408 325.429 148.307 325.474 148.191C325.519 148.075 325.528 147.948 325.501 147.826C325.474 147.705 325.412 147.594 325.322 147.507C325.233 147.421 325.119 147.363 324.997 147.34C324.874 147.318 324.748 147.332 324.633 147.381C324.519 147.43 324.421 147.512 324.353 147.616C324.284 147.72 324.248 147.843 324.249 147.967C324.25 148.092 324.287 148.213 324.357 148.317C324.404 148.387 324.465 148.447 324.536 148.493C324.606 148.54 324.686 148.572 324.769 148.587C324.852 148.602 324.937 148.6 325.02 148.582C325.103 148.564 325.181 148.529 325.25 148.48Z" fill="#263238"/>
<path d="M324.414 147.184C324.472 147.27 324.942 147.002 325.547 147.078C326.152 147.155 326.507 147.52 326.622 147.453C326.738 147.386 326.622 147.28 326.44 147.107C326.211 146.885 325.913 146.746 325.595 146.714C325.264 146.662 324.925 146.727 324.635 146.896C324.472 147.021 324.386 147.155 324.414 147.184Z" fill="#263238"/>
<path d="M330.827 148.605C330.71 148.656 330.611 148.74 330.543 148.848C330.474 148.955 330.439 149.081 330.442 149.208C330.445 149.336 330.485 149.459 330.558 149.564C330.632 149.668 330.734 149.748 330.853 149.794C330.972 149.84 331.102 149.85 331.226 149.822C331.351 149.794 331.464 149.729 331.551 149.637C331.639 149.544 331.697 149.428 331.719 149.302C331.74 149.177 331.724 149.048 331.672 148.931C331.603 148.776 331.475 148.655 331.317 148.594C331.159 148.533 330.983 148.537 330.827 148.605Z" fill="#263238"/>
<path d="M330.693 148.48C330.75 148.566 331.221 148.298 331.826 148.365C332.43 148.432 332.786 148.816 332.901 148.749C333.016 148.682 332.901 148.566 332.718 148.403C332.486 148.179 332.185 148.041 331.864 148.01C331.548 147.968 331.227 148.032 330.952 148.192C330.75 148.298 330.664 148.422 330.693 148.48Z" fill="#263238"/>
<path d="M327.746 153.28C327.746 153.232 327.4 153.117 326.786 152.954C326.632 152.954 326.507 152.858 326.507 152.771C326.526 152.615 326.586 152.466 326.68 152.339L327.323 151.178C327.911 150.203 328.397 149.17 328.773 148.096C328.094 148.996 327.505 149.96 327.016 150.976L326.402 152.147C326.275 152.337 326.214 152.563 326.229 152.79C326.245 152.853 326.274 152.912 326.316 152.962C326.358 153.012 326.41 153.052 326.469 153.078C326.551 153.115 326.638 153.138 326.728 153.146C327.056 153.253 327.401 153.298 327.746 153.28Z" fill="#263238"/>
<path d="M326.421 160.643C328.435 160.945 330.493 160.641 332.334 159.77C332.334 159.77 330.568 162.736 326.267 161.776L326.421 160.643Z" fill="#EB996E"/>
<path d="M339.726 149.834C339.822 149.834 343.336 150.131 342.126 153.347C341.08 156.16 338.2 154.634 338.2 154.538C338.2 154.442 339.726 149.834 339.726 149.834Z" fill="#FFBE9D"/>
<path d="M339.64 153.51C339.64 153.51 339.64 153.51 339.755 153.616C339.805 153.659 339.863 153.691 339.926 153.711C339.989 153.73 340.055 153.737 340.12 153.731C340.446 153.731 340.83 153.299 340.984 152.771C341.054 152.531 341.074 152.28 341.042 152.032C341.04 151.936 341.014 151.842 340.967 151.758C340.92 151.675 340.854 151.604 340.773 151.552C340.721 151.521 340.661 151.509 340.601 151.517C340.541 151.526 340.487 151.555 340.446 151.6C340.419 151.642 340.397 151.687 340.379 151.734C340.379 151.734 340.379 151.667 340.379 151.562C340.393 151.528 340.414 151.498 340.441 151.473C340.467 151.449 340.499 151.43 340.533 151.418C340.578 151.399 340.627 151.389 340.677 151.389C340.726 151.389 340.775 151.399 340.821 151.418C340.931 151.471 341.025 151.552 341.094 151.653C341.163 151.754 341.205 151.872 341.214 151.994C341.281 152.268 341.281 152.554 341.214 152.829C341.158 153.084 341.028 153.316 340.84 153.497C340.652 153.678 340.415 153.8 340.158 153.846C340.078 153.845 339.998 153.826 339.925 153.791C339.853 153.756 339.788 153.707 339.736 153.645C339.63 153.578 339.63 153.51 339.64 153.51Z" fill="#EB996E"/>
<path d="M336.587 149.603C336.567 149.764 336.584 149.927 336.638 150.081C336.691 150.234 336.779 150.373 336.894 150.486C337.106 150.726 337.374 150.909 337.605 151.149C337.956 151.521 338.169 152.002 338.21 152.512C338.208 152.735 338.23 152.957 338.277 153.174C338.304 153.283 338.363 153.381 338.447 153.455C338.531 153.528 338.636 153.575 338.747 153.587C339.093 153.587 339.246 153.155 339.304 152.81C339.544 151.36 339.774 149.93 340.014 148.461L336.51 146.934L336.712 149.382" fill="#263238"/>
<path d="M329.31 138.88C329.963 138.707 330.731 138.746 330.885 139.408C330.966 140.067 330.849 140.735 330.549 141.328C330.238 141.927 330.04 142.578 329.963 143.248C329.958 143.674 330.066 144.093 330.275 144.464C330.484 144.835 330.787 145.144 331.154 145.36C331.527 145.568 331.949 145.673 332.376 145.663C332.803 145.653 333.22 145.528 333.582 145.302C333.494 146.219 333.563 147.144 333.784 148.038C333.9 148.484 334.127 148.893 334.442 149.228C334.757 149.564 335.151 149.815 335.589 149.958C335.808 150.017 336.036 150.031 336.26 150C336.485 149.969 336.701 149.892 336.895 149.776C337.089 149.659 337.258 149.505 337.392 149.322C337.525 149.139 337.62 148.931 337.672 148.71C337.822 149.305 338.159 149.837 338.632 150.227C338.877 150.416 339.172 150.529 339.481 150.553C339.789 150.577 340.098 150.51 340.37 150.362C340.499 150.28 340.611 150.173 340.698 150.047C340.784 149.92 340.844 149.777 340.873 149.627C340.902 149.477 340.899 149.322 340.865 149.172C340.832 149.023 340.767 148.882 340.677 148.758C340.826 149.146 341.09 149.479 341.433 149.714C341.775 149.949 342.181 150.074 342.597 150.074C343.008 150.056 343.4 149.893 343.703 149.614C344.005 149.334 344.198 148.956 344.248 148.547C344.26 148.344 344.231 148.141 344.163 147.95C344.095 147.758 343.989 147.582 343.853 147.432C343.716 147.282 343.55 147.16 343.366 147.075C343.182 146.99 342.982 146.942 342.779 146.934C343.312 147.022 343.859 146.965 344.363 146.771C344.613 146.667 344.812 146.468 344.916 146.219C345.02 145.969 345.022 145.688 344.92 145.437C344.603 144.87 343.778 144.947 343.192 144.669C342.232 144.208 342.088 142.95 341.781 141.942C341.466 141.047 340.968 140.226 340.318 139.534C339.668 138.841 338.882 138.292 338.008 137.92C336.235 137.178 334.3 136.911 332.392 137.142C331.144 137.258 329.704 137.699 329.31 138.89" fill="#263238"/>
<path d="M326.68 146.291C326.556 146.414 326.4 146.498 326.23 146.534C326.059 146.57 325.882 146.555 325.72 146.493C325.355 146.397 325.029 146.176 324.99 145.869C324.952 145.562 325.413 145.274 325.95 145.418C326.488 145.562 326.834 146.042 326.68 146.291Z" fill="#263238"/>
<path d="M332.747 147.395C332.526 147.606 332.104 147.539 331.701 147.462C331.298 147.386 330.894 147.261 330.741 146.982C330.587 146.704 330.741 146.656 330.981 146.522C331.26 146.37 331.584 146.323 331.895 146.388C332.206 146.453 332.484 146.626 332.68 146.877C332.853 147.088 332.853 147.28 332.747 147.395Z" fill="#263238"/>
<path d="M330.261 153.606C330.357 153.606 330.126 154.346 329.368 154.787C328.61 155.229 327.88 155.085 327.909 154.989C327.938 154.893 328.542 154.864 329.186 154.47C329.829 154.077 330.165 153.558 330.261 153.606Z" fill="#263238"/>
<path d="M344.018 178.682C341.138 189.011 336.261 205.898 334.418 209.565L301.432 201.155L308.44 179.526C309.468 176.308 311.267 173.389 313.679 171.023C316.092 168.658 319.045 166.917 322.283 165.952L322.494 165.894C326.853 164.666 332.44 165.299 337.576 166.854C339.987 167.586 342.014 169.236 343.219 171.449C344.424 173.662 344.711 176.259 344.018 178.682Z" fill="#455A64"/>
<path d="M302.68 197.238C302.837 197.228 302.994 197.228 303.15 197.238L304.494 197.459L309.496 198.362L317.07 199.782L321.64 200.646L322.85 200.877C323.02 200.908 323.196 200.9 323.363 200.851C323.529 200.803 323.682 200.716 323.81 200.598C324.369 200.007 324.737 199.261 324.866 198.458C325.71 196.01 326.546 193.37 327.314 190.634C327.918 188.474 328.456 186.342 328.936 184.278C329.416 182.214 330.011 180.208 329.79 178.346C329.688 177.444 329.266 176.61 328.6 175.994C327.944 175.416 327.198 174.949 326.392 174.611C324.938 173.956 323.424 173.444 321.87 173.085C319.612 172.564 317.293 172.354 314.978 172.461C314.162 172.509 313.528 172.566 313.058 172.614C312.839 172.654 312.617 172.67 312.395 172.662C312.608 172.597 312.827 172.549 313.048 172.518C313.683 172.402 314.324 172.319 314.968 172.269C318.933 171.942 322.917 172.602 326.565 174.189C327.415 174.535 328.203 175.018 328.898 175.619C329.647 176.299 330.127 177.226 330.251 178.23C330.351 179.252 330.286 180.282 330.059 181.283C329.867 182.243 329.646 183.309 329.406 184.346C328.936 186.419 328.398 188.55 327.794 190.72C327.016 193.475 326.181 196.115 325.326 198.563C325.171 199.473 324.742 200.313 324.098 200.973C323.913 201.13 323.696 201.245 323.462 201.31C323.228 201.375 322.983 201.387 322.744 201.347L321.534 201.107L316.965 200.205L309.4 198.678L304.427 197.632L303.093 197.334C302.951 197.322 302.812 197.29 302.68 197.238Z" fill="#263238"/>
<g opacity="0.7">
<path opacity="0.7" d="M322.619 181.043C322.66 181.228 322.737 181.403 322.846 181.558C322.954 181.713 323.092 181.845 323.252 181.947C323.411 182.048 323.589 182.117 323.776 182.15C323.962 182.183 324.153 182.179 324.338 182.138C324.703 182.048 325.018 181.82 325.217 181.501C325.416 181.182 325.483 180.799 325.402 180.431C325.322 180.064 325.102 179.743 324.788 179.536C324.474 179.33 324.092 179.254 323.723 179.325C323.35 179.408 323.024 179.635 322.817 179.957C322.61 180.278 322.539 180.669 322.619 181.043Z" fill="white"/>
</g>
<g opacity="0.7">
<path opacity="0.7" d="M321.112 187.696C321.172 187.975 321.313 188.229 321.517 188.428C321.721 188.626 321.98 188.76 322.26 188.811C322.541 188.862 322.83 188.83 323.091 188.717C323.353 188.604 323.575 188.415 323.73 188.176C323.884 187.937 323.964 187.657 323.96 187.372C323.955 187.087 323.867 186.81 323.705 186.576C323.542 186.341 323.315 186.16 323.05 186.056C322.785 185.951 322.495 185.927 322.216 185.987C321.844 186.07 321.52 186.296 321.314 186.615C321.107 186.935 321.035 187.323 321.112 187.696Z" fill="white"/>
</g>
<g opacity="0.7">
<path opacity="0.7" d="M319 194.32C319.061 194.598 319.204 194.851 319.409 195.048C319.614 195.245 319.873 195.377 320.153 195.427C320.433 195.477 320.721 195.443 320.982 195.329C321.243 195.216 321.464 195.027 321.618 194.788C321.771 194.549 321.851 194.269 321.846 193.985C321.841 193.7 321.752 193.424 321.59 193.19C321.428 192.956 321.201 192.775 320.936 192.671C320.672 192.566 320.382 192.542 320.104 192.602C319.73 192.684 319.405 192.911 319.198 193.233C318.991 193.555 318.92 193.946 319 194.32Z" fill="white"/>
</g>
<path d="M312.587 178.24C315.305 178.487 317.984 179.061 320.565 179.949C319.198 179.917 317.84 179.714 316.523 179.344C315.171 179.136 313.85 178.766 312.587 178.24Z" fill="#263238"/>
<path d="M310.206 184.96C313.204 185.053 316.167 185.63 318.981 186.669C316.022 186.292 313.091 185.721 310.206 184.96Z" fill="#263238"/>
<path d="M309.4 192.054C310.639 192.056 311.872 192.22 313.067 192.544C314.295 192.703 315.496 193.026 316.638 193.504C315.396 193.504 314.16 193.34 312.962 193.014C311.736 192.857 310.538 192.534 309.4 192.054Z" fill="#263238"/>
<path d="M338.488 167.19C338.509 166.758 338.396 166.329 338.164 165.963C337.932 165.597 337.592 165.311 337.192 165.146C335.733 164.387 325.413 164.08 325.413 164.08C325.413 164.08 322.648 164.272 322.283 165.952L338.488 167.19Z" fill="#455A64"/>
<path d="M322.619 166.355C322.619 166.288 323.445 166.634 324.818 166.758C326.19 166.883 328.13 166.941 330.242 167.037C332.354 167.133 334.274 167.123 335.656 167.037C336.405 166.95 337.159 166.921 337.912 166.95C337.195 167.204 336.444 167.352 335.685 167.392C333.869 167.567 332.044 167.612 330.222 167.526C328.091 167.421 326.171 167.296 324.77 167.085C324.001 167.035 323.259 166.783 322.619 166.355Z" fill="#263238"/>
<path d="M334.83 167.142C334.706 167.066 334.888 166.547 334.83 165.923C334.773 165.299 334.456 164.829 334.562 164.723C334.667 164.618 335.224 165.04 335.33 165.856C335.435 166.672 334.936 167.229 334.83 167.142Z" fill="#263238"/>
<path d="M331.202 167.498C331.086 167.421 331.384 166.835 331.451 166.077C331.518 165.318 331.346 164.685 331.451 164.618C331.557 164.55 332.008 165.203 331.922 166.125C331.835 167.046 331.298 167.594 331.202 167.498Z" fill="#263238"/>
<path d="M327.16 166.902C327.026 166.902 326.872 166.221 327.16 165.414C327.448 164.608 327.966 164.147 328.062 164.243C328.158 164.339 327.861 164.867 327.64 165.578C327.419 166.288 327.304 166.893 327.16 166.902Z" fill="#263238"/>
<path d="M313.806 148.749C313.793 148.647 313.793 148.544 313.806 148.442C313.806 148.211 313.739 147.923 313.701 147.549C313.628 147.066 313.599 146.578 313.614 146.09C313.594 145.42 313.623 144.749 313.701 144.083C313.865 142.254 314.308 140.46 315.016 138.765C316.701 134.658 319.773 131.273 323.697 129.198C327.621 127.123 332.148 126.489 336.491 127.408C338.302 127.775 340.045 128.423 341.656 129.328C342.491 129.781 343.296 130.288 344.066 130.845C344.831 131.436 345.556 132.077 346.235 132.765C349.082 135.674 350.931 139.412 351.515 143.44C351.774 145.474 351.729 147.535 351.381 149.555C351.032 151.519 350.364 153.413 349.403 155.162C348.946 156.016 348.429 156.837 347.858 157.619C347.266 158.372 346.625 159.084 345.938 159.75C344.638 161.053 343.145 162.147 341.512 162.995C338.491 164.593 335.096 165.353 331.682 165.194C328.981 165.058 326.34 164.351 323.934 163.118C321.527 161.885 319.41 160.154 317.723 158.042C316.57 156.611 315.644 155.012 314.978 153.299C314.721 152.675 314.509 152.033 314.344 151.379C314.198 150.912 314.089 150.433 314.018 149.949L313.874 149.056C313.858 148.957 313.858 148.857 313.874 148.758C313.915 148.854 313.944 148.954 313.96 149.056C314.008 149.277 314.075 149.565 314.152 149.93C314.242 150.405 314.367 150.874 314.526 151.331C314.706 151.97 314.931 152.596 315.198 153.203C315.885 154.881 316.824 156.445 317.982 157.84C319.647 159.897 321.726 161.58 324.085 162.779C326.444 163.979 329.029 164.667 331.672 164.8C335.01 164.936 338.323 164.181 341.272 162.611C342.865 161.773 344.321 160.698 345.592 159.424C346.25 158.776 346.863 158.083 347.426 157.35C347.983 156.586 348.486 155.784 348.933 154.95C350.824 151.463 351.548 147.462 350.999 143.533C350.45 139.604 348.655 135.955 345.88 133.12C345.224 132.429 344.518 131.787 343.768 131.2C343.025 130.647 342.242 130.15 341.426 129.712C339.853 128.84 338.157 128.212 336.395 127.85C333.13 127.162 329.741 127.354 326.574 128.406C323.816 129.328 321.313 130.887 319.269 132.957C317.573 134.655 316.217 136.663 315.275 138.87C314.556 140.536 314.09 142.299 313.893 144.102C313.804 144.761 313.762 145.425 313.768 146.09C313.727 146.572 313.727 147.057 313.768 147.539C313.768 147.914 313.768 148.211 313.826 148.442C313.832 148.544 313.825 148.648 313.806 148.749Z" fill="#263238"/>
<path d="M319.509 138.736C319.827 137.955 320.271 137.232 320.824 136.595C323.364 133.381 326.958 131.167 330.971 130.346C331.785 130.133 332.629 130.062 333.467 130.134C333.467 130.211 332.507 130.307 331.058 130.691C329.137 131.188 327.3 131.964 325.605 132.995C323.922 134.049 322.402 135.343 321.093 136.835C320.094 137.978 319.586 138.774 319.509 138.736Z" fill="#455A64"/>
<path d="M318.606 141.885C318.472 141.885 318.338 141.386 318.52 140.79C318.702 140.195 319.106 139.83 319.202 139.936C319.298 140.042 319.202 140.435 319 140.896C318.798 141.357 318.75 141.875 318.606 141.885Z" fill="#455A64"/>
<path d="M398.258 202.173L405.093 203.315C406.509 203.551 407.963 203.291 409.21 202.579C410.457 201.867 411.42 200.747 411.938 199.408L418.754 181.85C419.09 180.984 419.23 180.055 419.161 179.129C419.093 178.202 418.819 177.303 418.359 176.497C417.899 175.69 417.265 174.996 416.503 174.466C415.741 173.935 414.87 173.582 413.954 173.43L413.07 173.277C409.971 172.764 406.79 173.333 404.061 174.889C401.332 176.445 399.222 178.893 398.085 181.821L393.458 193.754C393.123 194.619 392.985 195.548 393.054 196.474C393.123 197.399 393.397 198.298 393.857 199.104C394.317 199.91 394.95 200.604 395.711 201.135C396.472 201.665 397.342 202.02 398.258 202.173Z" fill="#455A64"/>
<path d="M522.242 230.493L529.24 241.005C528.226 247.1 525.496 252.78 521.369 257.379C517.243 261.979 511.891 265.306 505.941 266.973L465.333 278.32L437.867 278.406L86.9008 222.87L65.5408 215.19C60.5601 213.405 56.3634 209.929 53.6813 205.369C50.9992 200.808 50.0017 195.451 50.8624 190.23L53.3968 174.966C53.5875 173.825 54.1354 172.773 54.9616 171.962C55.7879 171.151 56.85 170.623 57.9952 170.454L59.6272 170.205C59.6272 170.205 63.208 155.411 72.7696 153.386C107.896 144.189 159.41 147.251 214.955 153.318L251.877 141.856C269.151 136.509 287.08 133.57 305.157 133.12C306.539 134.896 307.979 136.595 309.074 138.189L309.506 138.851C290.929 138.61 272.435 141.369 254.738 147.021L217.643 161.19L404.843 185.853C404.74 184.65 404.912 183.44 405.347 182.315C405.782 181.189 406.468 180.178 407.353 179.357C408.239 178.537 409.299 177.93 410.455 177.581C411.61 177.233 412.83 177.153 414.021 177.347L457.893 184.653L464.171 190.835L512.104 201.222C516.347 202.096 526.178 208.662 522.232 230.502" fill="#38BCAC"/>
<path d="M254.738 147.011C270.563 141.974 287.035 139.251 303.64 138.928C301.413 141.942 305.963 144.928 306.04 145.437L304.12 147.357C290.342 147.442 276.657 149.617 263.531 153.808L237.611 163.715L217.643 161.2L254.738 147.011Z" fill="#263238"/>
<path d="M70.648 170.838L59.9536 169.062C60.808 166.23 63.4768 158.771 68.7088 155.162L82.7824 157.504C83.3704 157.602 83.9219 157.855 84.3809 158.235C84.8399 158.616 85.19 159.111 85.3957 159.671C85.6015 160.23 85.6554 160.835 85.5522 161.422C85.449 162.009 85.1922 162.558 84.808 163.014L81.5824 166.854C80.2602 168.408 78.5577 169.591 76.6411 170.29C74.7245 170.988 72.6595 171.177 70.648 170.838Z" fill="#EBEBEB"/>
<path d="M72.04 170.397C73.8736 165.837 76.216 159.837 80.68 157.158L82.7632 157.504C83.3513 157.603 83.9028 157.855 84.3617 158.235C84.8207 158.616 85.1708 159.111 85.3766 159.671C85.5823 160.23 85.6363 160.835 85.533 161.422C85.4298 162.009 85.173 162.558 84.7888 163.014L81.5632 166.854C80.3716 168.26 78.8663 169.366 77.1687 170.083C75.4712 170.8 73.6289 171.108 71.7904 170.982L72.04 170.397Z" fill="#E0E0E0"/>
<g opacity="0.7">
<path opacity="0.7" d="M168.51 235.84C170.481 230.498 171.586 224.875 171.784 219.184C172.619 194.973 159.64 175.475 136.149 171.568C115.71 168.17 96.8464 178.394 89.8 201.578C87.7111 208.497 86.8597 215.732 87.2848 222.947L168.51 235.84Z" fill="black"/>
</g>
<g opacity="0.7">
<path opacity="0.7" d="M465.314 278.32C465.419 277.446 465.477 276.534 465.611 275.603C469.749 245.517 452.757 221.651 428.853 217.677C418.348 215.941 407.584 218.442 398.921 224.631C390.258 230.82 384.402 240.191 382.638 250.691C381.534 257.354 380.258 263.594 380.21 269.258L437.81 278.406L465.314 278.32Z" fill="black"/>
</g>
<path d="M422.258 292.278C441.583 292.278 457.25 276.612 457.25 257.286C457.25 237.961 441.583 222.294 422.258 222.294C402.932 222.294 387.266 237.961 387.266 257.286C387.266 276.612 402.932 292.278 422.258 292.278Z" fill="#263238"/>
<path d="M387.765 251.45V251.536C386.237 260.69 388.409 270.077 393.802 277.63C399.195 285.183 407.367 290.285 416.522 291.813C425.676 293.34 435.062 291.169 442.616 285.776C450.169 280.383 455.271 272.21 456.798 263.056C456.804 263.024 456.804 262.992 456.798 262.96L387.765 251.45Z" fill="#263238"/>
<path d="M398.027 253.254C397.222 258.048 397.856 262.972 399.849 267.405C401.843 271.837 405.107 275.579 409.228 278.156C413.349 280.733 418.142 282.03 423 281.882C427.858 281.735 432.563 280.149 436.52 277.327C440.477 274.504 443.507 270.571 445.228 266.026C446.949 261.481 447.283 256.527 446.188 251.791C445.093 247.056 442.618 242.752 439.076 239.424C435.534 236.096 431.084 233.893 426.29 233.094C419.869 232.022 413.285 233.544 407.985 237.324C402.686 241.104 399.104 246.834 398.027 253.254Z" fill="#FAFAFA"/>
<path d="M426.29 233.056C419.869 231.987 413.287 233.509 407.988 237.289C402.689 241.069 399.106 246.797 398.027 253.216L446.488 261.28C447.545 254.86 446.013 248.282 442.226 242.991C438.439 237.699 432.708 234.126 426.29 233.056Z" fill="#E0E0E0"/>
<path d="M407.493 254.829C407 257.749 407.384 260.749 408.596 263.451C409.809 266.153 411.796 268.434 414.305 270.006C416.815 271.578 419.735 272.37 422.694 272.282C425.654 272.194 428.522 271.23 430.934 269.512C433.346 267.794 435.194 265.398 436.244 262.63C437.294 259.861 437.499 256.843 436.833 253.957C436.168 251.072 434.661 248.449 432.504 246.42C430.347 244.391 427.636 243.048 424.715 242.56C420.805 241.91 416.797 242.836 413.569 245.136C410.341 247.435 408.156 250.921 407.493 254.829Z" fill="#455A64"/>
<path d="M130.437 248.915C149.762 248.915 165.429 233.249 165.429 213.923C165.429 194.598 149.762 178.931 130.437 178.931C111.111 178.931 95.4448 194.598 95.4448 213.923C95.4448 233.249 111.111 248.915 130.437 248.915Z" fill="#263238"/>
<path d="M95.9344 208.086C95.9389 208.115 95.9389 208.144 95.9344 208.173C95.178 212.706 95.3218 217.343 96.3576 221.82C97.3934 226.298 99.3009 230.527 101.971 234.267C107.364 241.82 115.537 246.922 124.691 248.45C133.846 249.977 143.232 247.806 150.785 242.413C158.339 237.02 163.44 228.847 164.968 219.693C164.973 219.664 164.973 219.635 164.968 219.606L95.9344 208.086Z" fill="#263238"/>
<path d="M106.206 209.92C105.401 214.713 106.035 219.638 108.029 224.07C110.022 228.503 113.286 232.244 117.407 234.821C121.528 237.398 126.321 238.695 131.179 238.548C136.037 238.4 140.742 236.815 144.699 233.992C148.656 231.17 151.686 227.237 153.408 222.692C155.129 218.146 155.463 213.192 154.367 208.457C153.272 203.722 150.797 199.418 147.255 196.089C143.713 192.761 139.263 190.558 134.469 189.76C128.048 188.688 121.464 190.209 116.164 193.99C110.865 197.77 107.283 203.5 106.206 209.92Z" fill="#FAFAFA"/>
<path d="M134.469 189.683C128.048 188.614 121.466 190.136 116.167 193.916C110.868 197.696 107.285 203.424 106.206 209.843L154.667 217.917C155.725 211.495 154.192 204.917 150.406 199.624C146.619 194.331 140.888 190.756 134.469 189.683Z" fill="#E0E0E0"/>
<path d="M115.672 211.456C115.184 214.376 115.574 217.375 116.791 220.073C118.007 222.772 119.997 225.049 122.508 226.617C125.019 228.184 127.939 228.972 130.898 228.88C133.857 228.789 136.722 227.821 139.131 226.101C141.54 224.381 143.385 221.985 144.432 219.216C145.48 216.447 145.682 213.43 145.015 210.546C144.347 207.662 142.839 205.041 140.682 203.014C138.525 200.987 135.814 199.645 132.894 199.158C128.98 198.506 124.967 199.435 121.737 201.741C118.507 204.047 116.326 207.542 115.672 211.456Z" fill="#263238"/>
<path d="M241.49 164.32L217.643 161.181L239.502 152.829L241.49 164.32Z" fill="#38BCAC"/>
<g opacity="0.3">
<path opacity="0.3" d="M241.49 164.32L217.643 161.181L239.502 152.829L241.49 164.32Z" fill="black"/>
</g>
<path d="M250.638 169.091L240.779 167.45C239.349 167.219 238.61 164.502 239.128 161.382C239.598 158.598 240.923 156.381 242.258 156.17L253.077 154.461L250.638 169.091Z" fill="#38BCAC"/>
<g opacity="0.4">
<path opacity="0.4" d="M64.7152 195.837C64.072 199.677 61.6432 202.557 59.2816 202.125C56.92 201.693 55.5376 198.285 56.1808 194.445C56.824 190.605 59.2528 187.725 61.6144 188.147C63.976 188.57 65.3584 191.968 64.7152 195.837Z" fill="black"/>
</g>
<path d="M522.242 230.493C522.017 230.5 521.791 230.484 521.57 230.445L519.65 230.224C517.979 230.013 515.57 229.706 512.584 229.37C509.598 229.034 506.037 228.669 502.082 228.41C497.794 228.082 493.489 228.062 489.198 228.352C486.991 228.532 484.807 228.934 482.68 229.552C480.714 230.191 478.829 231.058 477.064 232.134C474.056 233.95 471.17 235.961 468.424 238.154C466.531 239.609 464.48 240.846 462.309 241.84C461.716 242.097 461.106 242.315 460.485 242.493C460.271 242.572 460.049 242.627 459.822 242.656C459.822 242.598 460.715 242.368 462.232 241.696C464.354 240.627 466.358 239.341 468.213 237.856C470.947 235.613 473.834 233.564 476.853 231.722C478.639 230.619 480.55 229.733 482.546 229.082C484.703 228.437 486.924 228.025 489.17 227.853C493.486 227.557 497.818 227.586 502.13 227.939C506.104 228.246 509.666 228.64 512.642 229.034C515.618 229.427 518.037 229.773 519.698 230.042L521.618 230.358C521.83 230.382 522.039 230.427 522.242 230.493Z" fill="#263238"/>
<g opacity="0.5">
<path opacity="0.5" d="M464.114 278.771L464.574 278.56C465.022 278.363 465.455 278.136 465.87 277.878C467.444 276.852 468.758 275.476 469.71 273.856C471.191 271.26 472.024 268.346 472.139 265.36C472.336 261.409 472.153 257.449 471.592 253.533C470.96 248.792 469.771 244.142 468.05 239.68C466.04 234.556 463.206 229.796 459.659 225.587C455.755 220.924 450.906 217.141 445.432 214.49C439.512 211.723 433.098 210.169 426.568 209.92C420.045 209.626 413.516 210.308 407.195 211.946C401.546 213.24 396.238 215.725 391.624 219.232C387.011 222.74 383.198 227.191 380.44 232.288C378.067 236.459 376.137 240.867 374.68 245.44C374.018 247.533 373.451 249.558 372.981 251.478C372.496 253.278 372.14 255.11 371.915 256.96C371.502 260.406 372.184 263.517 373.682 265.466C374.757 267.024 376.359 268.143 378.194 268.614C378.827 268.726 379.471 268.765 380.114 268.73L379.614 268.797C379.12 268.828 378.623 268.799 378.136 268.71C376.254 268.276 374.599 267.162 373.49 265.581C371.925 263.603 371.205 260.426 371.57 256.941C371.782 255.075 372.128 253.227 372.606 251.411C373.067 249.491 373.624 247.469 374.277 245.344C375.692 240.734 377.591 236.287 379.941 232.077C381.272 229.736 382.787 227.505 384.472 225.405C386.277 223.19 388.314 221.176 390.549 219.395C395.408 215.624 401.008 212.922 406.984 211.466C413.354 209.812 419.936 209.123 426.51 209.421C433.102 209.665 439.577 211.226 445.557 214.01C451.101 216.69 456.011 220.523 459.957 225.251C463.522 229.509 466.366 234.321 468.376 239.498C470.113 243.998 471.306 248.691 471.928 253.475C472.474 257.415 472.635 261.399 472.408 265.37C472.27 268.395 471.397 271.34 469.864 273.952C468.872 275.586 467.502 276.959 465.87 277.955C465.322 278.302 464.732 278.576 464.114 278.771Z" fill="white"/>
</g>
<path d="M197.944 231.04C197.922 230.778 197.922 230.515 197.944 230.253C197.992 229.686 198.069 228.947 198.155 228.006C198.357 226.01 198.654 223.206 199.01 219.76C199.787 212.762 200.853 203.171 202.034 192.573C202.677 187.293 202.994 182.157 204.472 177.693C205.143 175.591 206.113 173.596 207.352 171.77C208.404 170.164 209.579 168.643 210.866 167.219C212.715 165.145 214.837 163.33 217.173 161.824C217.989 161.286 218.661 160.912 219.093 160.672C219.317 160.536 219.555 160.423 219.803 160.336C219.597 160.493 219.378 160.635 219.15 160.758C218.709 161.027 218.056 161.43 217.23 161.987C214.956 163.54 212.889 165.376 211.077 167.45C209.828 168.881 208.685 170.401 207.659 172C206.435 173.797 205.481 175.763 204.827 177.837C203.416 182.224 203.09 187.341 202.437 192.63C201.208 203.19 200.094 212.79 199.278 219.798C198.846 223.235 198.501 226.029 198.261 228.026C198.136 228.986 198.03 229.706 197.954 230.262C197.975 230.521 197.972 230.782 197.944 231.04Z" fill="#263238"/>
<path d="M182.094 228.4C182.094 228.4 182.286 228.4 182.661 228.458L184.322 228.678L190.725 229.59L214.235 233.008L291.784 244.48L326.267 249.635L326.046 249.731C331.801 241.344 336.956 232.56 341.474 223.446C343.375 219.576 345.048 215.598 346.485 211.533C347.685 208.038 348.707 204.485 349.547 200.886C350.79 195.787 351.644 190.601 352.101 185.373C352.254 183.549 352.302 182.138 352.322 181.187C352.322 180.717 352.322 180.362 352.322 180.102C352.322 179.843 352.322 179.738 352.322 179.738C352.328 179.859 352.328 179.981 352.322 180.102C352.322 180.342 352.322 180.707 352.322 181.187C352.322 182.147 352.322 183.558 352.178 185.382C351.78 190.629 350.968 195.835 349.749 200.954C348.964 204.566 347.993 208.136 346.84 211.648C345.416 215.733 343.752 219.73 341.858 223.619C337.357 232.772 332.208 241.591 326.45 250.01L326.373 250.125H326.219L291.726 244.998L214.206 233.382L190.715 229.802L184.331 228.842L182.67 228.563C182.277 228.448 182.094 228.4 182.094 228.4Z" fill="#263238"/>
<g opacity="0.3">
<path opacity="0.3" d="M250.638 169.091L240.779 167.45C239.349 167.219 238.61 164.502 239.128 161.382C239.598 158.598 240.923 156.381 242.258 156.17L253.077 154.461L250.638 169.091Z" fill="white"/>
</g>
<path d="M90.52 201.654C90.1721 201.177 89.8516 200.68 89.56 200.166C88.7216 198.821 87.7572 197.557 86.68 196.394C83.0835 192.585 78.6402 189.678 73.7104 187.907C68.7641 186.19 63.6299 185.072 58.4176 184.576C56.4208 184.355 54.7984 184.202 53.6752 184.096C53.0914 184.065 52.5107 183.991 51.9376 183.875C52.0873 183.855 52.2391 183.855 52.3888 183.875L53.6944 183.923C54.8176 183.923 56.4496 184.067 58.4944 184.25C63.7556 184.64 68.9426 185.722 73.9216 187.466C78.9251 189.247 83.4103 192.238 86.9776 196.173C88.0354 197.377 88.9622 198.69 89.7424 200.09C90.0304 200.579 90.1936 200.982 90.328 201.251C90.4624 201.52 90.52 201.645 90.52 201.654Z" fill="#263238"/>
<path d="M94.216 175.878C94.216 176.013 85.9408 174.746 75.7744 173.056C65.608 171.366 57.3904 169.878 57.4192 169.744C57.448 169.61 65.6944 170.877 75.8608 172.566C86.0272 174.256 94.2448 175.744 94.216 175.878Z" fill="#263238"/>
<g opacity="0.5">
<path opacity="0.5" d="M181.144 234.083C181.144 234.083 181.144 233.92 181.144 233.603C181.144 233.286 181.25 232.806 181.326 232.211C181.403 231.616 181.499 230.838 181.576 229.946C181.653 229.053 181.758 228.026 181.816 226.835C182.203 220.227 181.765 213.597 180.51 207.098C179.678 202.613 178.477 198.204 176.92 193.917C175.207 188.97 172.916 184.243 170.094 179.834C166.916 174.989 162.687 170.923 157.72 167.939C152.409 164.749 146.548 162.581 140.44 161.546C137.333 161.044 134.189 160.797 131.042 160.806C127.987 160.864 124.942 161.152 121.931 161.67C119.029 162.204 116.175 162.971 113.397 163.965L112.379 164.32L111.419 164.733L109.451 165.558L107.531 166.518L106.571 166.979L105.669 167.498C101.09 170.026 96.9416 173.266 93.3808 177.098C90.2758 180.439 87.6081 184.162 85.4416 188.176C83.6519 191.487 82.2013 194.97 81.112 198.573C80.6896 200.176 80.2576 201.664 80.008 203.075C79.7584 204.486 79.528 205.754 79.3648 206.915C79.2016 208.077 79.1632 209.114 79.0672 210.006C78.9712 210.899 78.9712 211.667 78.9616 212.282C78.952 212.896 78.9616 213.347 78.9616 213.683C78.9616 214.019 78.9616 214.163 78.9616 214.163C78.9534 214.007 78.9534 213.85 78.9616 213.693C78.9616 213.347 78.9616 212.886 78.9616 212.282C78.9616 211.677 78.9616 210.899 79.0192 209.997C79.0768 209.094 79.096 208.077 79.2784 206.886C79.4608 205.696 79.576 204.419 79.8832 203.046C80.1904 201.674 80.536 200.166 80.9488 198.515C82.0216 194.883 83.456 191.368 85.2304 188.022C87.3955 183.97 90.0664 180.208 93.1792 176.829C96.7588 172.943 100.936 169.653 105.554 167.085L106.456 166.566L107.416 166.096L109.336 165.136C109.998 164.858 110.661 164.589 111.323 164.301L112.283 163.888L113.32 163.523C116.131 162.512 119.021 161.735 121.96 161.2C124.998 160.671 128.073 160.376 131.157 160.317C134.334 160.305 137.506 160.556 140.642 161.066C146.83 162.103 152.767 164.298 158.142 167.536C163.156 170.562 167.422 174.68 170.622 179.584C173.455 184.03 175.749 188.796 177.458 193.782C178.968 198.1 180.121 202.534 180.904 207.04C182.122 213.57 182.509 220.227 182.056 226.854C181.904 229.281 181.599 231.695 181.144 234.083Z" fill="white"/>
</g>
<path d="M211.653 166.547C211.528 166.556 211.403 166.556 211.278 166.547L210.213 166.374L206.104 165.683C202.533 165.107 197.368 164.234 190.955 163.37C184.542 162.506 176.891 161.565 168.376 160.787C159.861 160.01 150.472 159.424 140.603 159.107C130.734 158.79 121.336 158.867 112.763 158.973C104.19 159.078 96.4432 158.973 90.0208 158.493C84.9164 158.139 79.8422 157.437 74.8336 156.39C73.0576 156.026 71.6944 155.67 70.7824 155.43L69.736 155.142C69.614 155.116 69.495 155.078 69.3808 155.027L69.7456 155.094L70.8016 155.334C71.7616 155.565 73.096 155.882 74.872 156.218C79.8847 157.183 84.9544 157.824 90.0496 158.138C96.5008 158.579 104.2 158.646 112.763 158.512C121.326 158.378 130.734 158.291 140.603 158.598C150.472 158.906 159.87 159.558 168.395 160.336C176.92 161.114 184.571 162.093 190.984 163.014C197.397 163.936 202.552 164.858 206.114 165.491L210.213 166.278L211.269 166.499L211.653 166.547Z" fill="#263238"/>
<path d="M372.242 257.046C372.242 257.181 361.816 255.558 349.019 253.427C336.222 251.296 325.854 249.462 325.883 249.318C325.912 249.174 336.299 250.806 349.106 252.938C361.912 255.069 372.261 256.902 372.242 257.046Z" fill="#263238"/>
<path d="M464.382 191.114C464.371 191.284 464.335 191.452 464.277 191.613C464.171 191.987 464.027 192.448 463.864 193.014C463.509 194.243 462.981 196 462.472 198.218C461.852 200.791 461.575 203.434 461.646 206.08C461.786 209.317 462.859 212.445 464.738 215.085C466.654 217.695 469.089 219.882 471.89 221.507C474.184 222.845 476.602 223.96 479.109 224.838C481.24 225.616 482.997 226.154 484.206 226.547L485.598 227.008C485.767 227.047 485.929 227.111 486.078 227.2C485.905 227.19 485.734 227.158 485.57 227.104L484.149 226.739C482.93 226.403 481.144 225.914 478.984 225.174C476.44 224.331 473.987 223.238 471.659 221.91C468.784 220.269 466.285 218.041 464.325 215.373C462.39 212.657 461.298 209.432 461.186 206.099C461.132 203.411 461.455 200.729 462.146 198.131C462.693 195.914 463.278 194.166 463.691 192.957C463.902 192.352 464.066 191.891 464.19 191.574C464.236 191.414 464.3 191.259 464.382 191.114Z" fill="#263238"/>
<path d="M522.971 225.99C522.414 228.458 519.65 227.757 516.606 226.355C515.449 225.833 514.409 225.083 513.548 224.15C512.687 223.217 512.023 222.12 511.596 220.925C511.168 219.73 510.986 218.46 511.06 217.193C511.135 215.926 511.463 214.686 512.027 213.549V213.462C512.772 212.015 513.902 210.801 515.293 209.954C516.683 209.107 518.281 208.66 519.909 208.662L520.59 208.739C520.59 208.739 524.68 218.445 522.971 225.99Z" fill="#E0E0E0"/>
<path d="M331.307 187.13C331.453 187.104 331.603 187.104 331.749 187.13C332.163 187.172 332.571 187.255 332.968 187.379C333.299 187.471 333.606 187.632 333.869 187.853C334.132 188.073 334.346 188.347 334.494 188.656C334.695 189.07 334.783 189.529 334.749 189.987C334.716 190.446 334.561 190.887 334.302 191.267C333.977 191.714 333.559 192.085 333.076 192.355C332.594 192.625 332.06 192.788 331.509 192.832C330.287 192.905 329.061 192.778 327.88 192.458L319.816 190.768C319.077 190.636 318.364 190.387 317.704 190.029C317.368 189.838 317.076 189.578 316.846 189.267C316.616 188.957 316.454 188.601 316.37 188.224C316.321 187.848 316.362 187.467 316.489 187.11C316.616 186.753 316.825 186.431 317.099 186.17C317.589 185.669 318.224 185.333 318.914 185.21C320.135 185.082 321.369 185.144 322.571 185.392C323.685 185.565 324.722 185.757 325.662 185.939L330.107 186.813C330.658 186.889 331.203 187.002 331.739 187.149C331.596 187.176 331.45 187.176 331.307 187.149C331.029 187.149 330.616 187.082 330.078 187.014C329.013 186.88 327.486 186.621 325.595 186.294C324.635 186.141 323.618 185.968 322.504 185.814C321.354 185.586 320.174 185.541 319.01 185.68C318.411 185.782 317.86 186.071 317.435 186.506C317.216 186.713 317.049 186.968 316.948 187.252C316.846 187.535 316.812 187.839 316.85 188.138C316.924 188.445 317.061 188.733 317.253 188.984C317.444 189.236 317.686 189.444 317.963 189.597C318.56 189.931 319.209 190.161 319.883 190.278L327.938 192.006C329.07 192.329 330.246 192.468 331.422 192.419C331.919 192.383 332.402 192.245 332.842 192.011C333.282 191.778 333.668 191.456 333.976 191.066C334.212 190.737 334.357 190.351 334.395 189.948C334.434 189.545 334.366 189.139 334.197 188.771C334.072 188.487 333.889 188.232 333.659 188.023C333.429 187.815 333.158 187.658 332.862 187.562C331.902 187.245 331.298 187.187 331.307 187.13Z" fill="#263238"/>
<path d="M357.4 183.702L339.64 177.539C335.877 176.378 334.302 176.234 333.938 173.382C334.466 168.832 336.376 166.826 339.698 167.488C339.563 166.691 358.686 173.037 366.731 175.744C367.824 176.114 368.822 176.722 369.652 177.523C370.482 178.325 371.124 179.301 371.531 180.381" fill="#455A64"/>
<path d="M357.4 183.75C357.448 182.963 357.678 182.197 358.072 181.514C358.929 179.794 360.311 178.392 362.018 177.51C363.739 176.651 365.693 176.375 367.586 176.723C368.37 176.823 369.121 177.099 369.784 177.53C369.784 177.616 368.93 177.251 367.538 177.078C365.727 176.839 363.886 177.143 362.248 177.952C360.635 178.801 359.302 180.098 358.408 181.686C357.688 182.906 357.486 183.779 357.4 183.75Z" fill="#263238"/>
<path d="M339.832 176.109C343.03 176.702 346.196 177.458 349.317 178.374C352.479 179.131 355.6 180.051 358.667 181.13C355.468 180.536 352.303 179.776 349.182 178.854C346.021 178.098 342.9 177.182 339.832 176.109Z" fill="#263238"/>
<g opacity="0.2">
<path opacity="0.2" d="M355.384 183.299C355.182 182.551 355.205 181.76 355.449 181.024C355.693 180.289 356.148 179.641 356.757 179.162C358.152 178.251 359.808 177.823 361.47 177.942C359.458 179.317 357.993 181.356 357.333 183.702L355.384 183.299Z" fill="black"/>
</g>
<path d="M347.205 197.238C345.425 198.538 343.576 199.74 341.666 200.838C338.949 202.25 338.786 202.01 338.709 201.664C338.411 200.704 343.384 199.005 342.098 198.784C340.811 198.563 336.27 201.664 335.992 200.637C335.646 199.36 340.888 197.642 341.32 197.459C341.752 197.277 341.502 196.653 341.128 196.835C340.571 197.094 334.744 199.715 334.408 198.458C334.216 197.766 335.493 197.498 335.493 197.498C335.493 197.498 341.128 195.453 340.936 194.877C340.744 194.301 337.394 195.366 336.29 195.837C335.186 196.307 334.552 195.942 334.754 195.29C334.898 194.858 338.248 193.37 339.352 192.995C340.456 192.621 343.49 191.498 341.56 190.806C339.63 190.115 338.392 188.886 338.296 188.301C338.287 188.167 338.32 188.033 338.39 187.919C338.461 187.805 338.565 187.715 338.689 187.664C338.813 187.612 338.95 187.6 339.081 187.63C339.212 187.66 339.33 187.73 339.419 187.83C339.963 188.261 340.564 188.613 341.205 188.877C341.711 189.111 342.253 189.257 342.808 189.309C343.451 189.366 344.008 189.395 344.469 189.395C345.223 189.396 345.947 189.692 346.485 190.221C347.224 191.066 348.405 196.365 348.405 196.365L347.205 197.238Z" fill="#263238"/>
<path d="M347.07 188.426L350.123 196.106C350.222 196.34 350.235 196.602 350.162 196.845C350.088 197.089 349.932 197.299 349.72 197.44C349.583 197.521 349.431 197.571 349.273 197.587C349.115 197.603 348.955 197.585 348.805 197.534C348.654 197.483 348.517 197.4 348.401 197.291C348.286 197.182 348.195 197.05 348.136 196.902L345.131 189.174C345.043 188.948 345.033 188.698 345.103 188.465C345.172 188.232 345.317 188.029 345.515 187.888C345.65 187.809 345.801 187.761 345.956 187.745C346.112 187.73 346.269 187.749 346.416 187.8C346.564 187.851 346.699 187.933 346.812 188.041C346.925 188.149 347.013 188.28 347.07 188.426Z" fill="#263238"/>
<path d="M346.677 187.84L349.557 195.981L368.613 188.8C369.357 188.527 370.036 188.104 370.609 187.557C371.182 187.009 371.636 186.35 371.942 185.619C372.249 184.888 372.401 184.102 372.39 183.31C372.378 182.518 372.204 181.736 371.877 181.014L370.456 178.403L346.677 187.84Z" fill="#455A64"/>
<path d="M348.126 191.958C348.126 191.882 349.49 191.488 351.688 190.72C353.886 189.952 356.882 188.8 360.165 187.446C363.448 186.093 366.424 184.835 368.603 184C369.688 183.587 370.571 183.261 371.195 183.04C371.504 182.914 371.826 182.823 372.155 182.771C371.87 182.957 371.564 183.108 371.243 183.222L368.709 184.317C366.568 185.277 363.63 186.534 360.338 187.898C357.045 189.261 354.011 190.374 351.774 191.046C350.661 191.392 349.749 191.632 349.106 191.776C348.789 191.882 348.46 191.943 348.126 191.958Z" fill="#263238"/>
<path d="M336.357 176.781C336.114 176.309 335.985 175.786 335.982 175.254C335.889 173.974 336.076 172.688 336.528 171.486C336.981 170.285 337.689 169.196 338.603 168.294C339.323 167.622 339.861 167.334 339.899 167.392C339.938 167.45 339.477 167.834 338.862 168.544C338.057 169.464 337.423 170.521 336.99 171.664C336.566 172.807 336.345 174.016 336.338 175.235C336.385 175.749 336.391 176.266 336.357 176.781Z" fill="#263238"/>
<path d="M328.101 167.229C327.324 168.235 326.491 169.197 325.605 170.109C324.85 171.113 324.039 172.075 323.176 172.989C324.233 170.638 325.942 168.639 328.101 167.229Z" fill="#263238"/>
<path d="M321.39 168.314C321.219 168.411 321.09 168.569 321.031 168.757C320.972 168.946 320.986 169.149 321.071 169.327C321.157 169.505 321.306 169.644 321.49 169.715C321.674 169.787 321.878 169.786 322.061 169.713C322.245 169.639 322.393 169.499 322.477 169.321C322.56 169.142 322.573 168.938 322.512 168.751C322.451 168.563 322.321 168.406 322.149 168.31C321.976 168.215 321.774 168.189 321.582 168.237" fill="#EBEBEB"/>
<path d="M320.104 170.061C319.932 170.158 319.804 170.316 319.744 170.505C319.685 170.693 319.7 170.896 319.785 171.074C319.87 171.252 320.02 171.391 320.204 171.463C320.388 171.534 320.592 171.533 320.775 171.46C320.958 171.387 321.107 171.247 321.19 171.068C321.274 170.889 321.287 170.686 321.226 170.498C321.165 170.31 321.035 170.153 320.862 170.057C320.69 169.962 320.487 169.936 320.296 169.984" fill="#EBEBEB"/>
<path d="M328.418 169.466C328.466 169.514 328.493 169.58 328.493 169.648C328.493 169.716 328.466 169.782 328.418 169.83C328.394 169.854 328.367 169.873 328.336 169.885C328.306 169.898 328.273 169.905 328.24 169.905C328.207 169.905 328.174 169.898 328.144 169.885C328.113 169.873 328.086 169.854 328.062 169.83C328.014 169.782 327.987 169.716 327.987 169.648C327.987 169.58 328.014 169.514 328.062 169.466C328.112 169.422 328.175 169.399 328.24 169.399C328.305 169.399 328.369 169.422 328.418 169.466Z" fill="#263238"/>
<path d="M326.747 172.019C326.785 172.061 326.806 172.116 326.806 172.173C326.806 172.229 326.785 172.284 326.747 172.326C326.696 172.352 326.638 172.36 326.582 172.347C326.526 172.335 326.476 172.304 326.44 172.259C326.354 172.154 326.334 172.019 326.44 171.952C326.464 171.935 326.491 171.923 326.521 171.917C326.55 171.911 326.58 171.911 326.609 171.917C326.638 171.923 326.665 171.936 326.689 171.953C326.713 171.971 326.733 171.993 326.747 172.019Z" fill="#263238"/>
<g opacity="0.5">
<path opacity="0.5" d="M268.485 167.91C268.485 167.91 237.458 200.426 237.448 218.435C237.448 218.435 246.539 211.619 251.253 211.36C251.253 211.36 240.165 220.72 239.358 243.184C239.358 243.184 260.046 205.936 284.315 195.914C284.315 195.914 266.306 200.416 261.928 202.998C261.928 202.998 285.851 178.634 300.923 172.278L268.485 167.91Z" fill="white"/>
</g>
</svg>
