<svg width="70" height="70" viewBox="0 0 70 70" fill="none" xmlns="http://www.w3.org/2000/svg">
<circle cx="35" cy="35" r="35" fill="#38BCAC"/>
<path fill-rule="evenodd" clip-rule="evenodd" d="M17.67 28.8073L15.0631 26.1282L15 34.5H23.4509L20.7305 31.7094L28.9422 23.7222C30.3526 22.3455 31.6876 20.7952 34.3578 21.341C37.4686 21.961 38.3375 23.8834 38.3375 26.6244C38.3375 31.263 27.2293 35.3186 27.2293 42.8096C27.2293 47.8947 31.3979 52 36.5491 52C41.5365 52 44.7482 47.5474 48.7153 43.6282C49.6599 42.698 51.461 41.1477 52.1033 40.1927L54.9496 42.8593L55 34.5H46.5491L49.1687 37.1789L41.058 45.2778C39.6474 46.6545 38.3124 48.2048 35.6424 47.659C32.5314 47.0389 31.6625 45.1166 31.6625 42.3756C31.6625 37.8486 42.7707 33.545 42.7707 26.1904C42.7707 21.1053 38.6021 17 33.4509 17C28.4635 17 25.252 21.4526 21.2847 25.3718C20.3149 26.3143 18.6651 28.1499 17.67 28.8073V28.8073Z" fill="white"/>
</svg>
