<svg width="43" height="38" viewBox="0 0 43 38" fill="none" xmlns="http://www.w3.org/2000/svg">
<path fill-rule="evenodd" clip-rule="evenodd" d="M3.56631 12.9282L0.837277 10.0808L0.771255 18.9787H9.61801L6.77023 16.0127L15.3665 7.52356C16.843 6.06042 18.2405 4.41265 21.0357 4.99273C24.2922 5.6517 25.2019 7.69491 25.2019 10.6082C25.2019 15.5382 13.5734 19.8487 13.5734 27.8105C13.5734 33.2151 17.9373 37.5783 23.3298 37.5783C28.5507 37.5783 31.9128 32.846 36.0658 28.6805C37.0546 27.6918 38.9401 26.0441 39.6125 25.0291L42.5921 27.8632L42.6449 18.9787H33.7981L36.5404 21.8259L28.0498 30.4338C26.5731 31.8969 25.1756 33.5447 22.3805 32.9646C19.1239 32.3055 18.2143 30.2624 18.2143 27.3491C18.2143 22.5377 29.8428 17.9637 29.8428 10.1468C29.8428 4.74221 25.4788 0.378967 20.0864 0.378967C14.8654 0.378967 11.5034 5.11135 7.3503 9.2768C6.33507 10.2786 4.60798 12.2295 3.56631 12.9282Z" fill="white"/>
</svg>
